<?xml version="1.0" standalone="no"?>
<!DOCTYPE svg PUBLIC "-//W3C//DTD SVG 20010904//EN"
 "http://www.w3.org/TR/2001/REC-SVG-20010904/DTD/svg10.dtd">
<svg version="1.0" xmlns="http://www.w3.org/2000/svg"
 width="512.000000pt" height="512.000000pt" viewBox="0 0 512.000000 512.000000"
 preserveAspectRatio="xMidYMid meet">
<metadata>
Created by potrace 1.11, written by Peter Selinger 2001-2013
</metadata>
<g transform="translate(0.000000,512.000000) scale(0.100000,-0.100000)"
fill="#000000" stroke="none">
<path d="M75 5109 c-4 -5 -4 -21 -1 -35 4 -13 2 -24 -2 -24 -5 0 -2 -25 5 -56
12 -45 12 -58 2 -64 -9 -6 -8 -12 4 -25 19 -19 22 -32 6 -37 -5 -2 -11 -20
-12 -40 -2 -28 -8 -40 -25 -48 -13 -5 -21 -14 -18 -19 3 -4 -3 -16 -14 -26
-19 -18 -20 -33 -20 -588 l0 -569 28 6 c25 6 26 5 8 -9 -10 -8 -23 -12 -27 -9
-5 3 -9 -297 -9 -667 l0 -671 27 5 c26 5 26 4 8 -9 -10 -8 -22 -14 -27 -14 -4
0 -8 -47 -8 -105 0 -58 2 -105 5 -105 3 0 22 7 42 15 20 8 38 13 40 11 2 -2
-16 -12 -41 -21 l-46 -18 0 -138 c0 -77 2 -139 5 -139 2 0 34 16 70 36 36 20
65 33 65 31 0 -3 -31 -23 -70 -43 l-69 -38 -1 -848 0 -848 280 0 c211 0 280 3
280 12 0 9 3 9 12 0 18 -18 468 -17 468 1 0 9 2 9 9 -1 5 -9 25 -12 62 -10 60
3 62 7 46 88 -9 47 8 11 23 -48 l11 -42 274 0 c254 1 274 2 269 18 -5 15 -5
15 6 0 11 -18 40 -25 40 -10 0 4 -4 21 -9 39 -6 21 -5 35 2 43 9 9 7 16 -10
27 -30 20 -29 31 2 29 14 0 25 -6 25 -13 0 -6 6 -13 12 -15 10 -4 10 -10 1
-31 -10 -21 -10 -25 1 -21 8 3 18 -1 22 -8 6 -9 10 -6 15 12 6 21 7 19 8 -13
1 -35 0 -37 -15 -23 -27 28 -42 18 -28 -18 5 -12 31 -15 160 -15 140 -1 154 1
154 16 1 17 1 17 11 1 9 -17 34 -18 312 -17 166 0 295 3 287 6 -17 7 -45 33
-35 33 4 0 19 -8 33 -19 23 -16 47 -19 146 -20 107 -2 118 0 106 14 -16 19
-10 19 26 0 31 -16 244 -22 244 -7 -1 12 -29 58 -30 47 0 -5 -8 3 -16 18 -9
16 -13 31 -11 34 3 2 8 -5 12 -16 3 -12 11 -21 17 -21 6 0 16 -7 23 -17 15
-20 35 -9 36 20 0 12 5 31 10 42 9 20 7 -22 -4 -88 -5 -24 -2 -27 21 -27 20 0
23 3 14 12 -7 7 -12 21 -12 33 0 15 4 13 16 -12 13 -25 23 -33 43 -33 25 1 25
1 7 15 -11 8 -16 15 -11 15 5 0 16 -7 26 -16 9 -8 27 -14 40 -12 l22 3 -27 35
c-27 34 -27 34 7 -2 34 -38 34 -38 116 -38 81 0 82 0 71 23 l-11 22 17 -23 16
-22 739 0 739 0 -2 2377 -3 2378 -23 3 c-16 3 -21 8 -17 21 3 10 -3 22 -14 30
-10 8 -16 21 -14 31 3 10 -5 32 -18 49 -22 30 -22 31 -4 45 17 13 18 16 5 42
-16 33 -19 55 -9 69 4 6 10 25 14 43 l7 32 -1076 0 -1076 0 0 -35 c0 -18 -4
-37 -10 -40 -6 -4 -10 8 -10 30 0 20 -4 34 -9 31 -5 -4 -12 0 -14 6 -4 8 -8 4
-12 -9 -4 -13 -11 -21 -15 -18 -4 3 -8 -5 -7 -18 0 -40 -11 -118 -18 -125 -4
-4 -5 29 -1 73 4 44 11 82 17 83 17 7 9 22 -12 22 -16 0 -19 -4 -14 -20 4 -12
2 -26 -3 -33 -6 -7 -12 -26 -15 -42 -2 -17 -3 -1 -1 35 2 36 1 59 -2 52 -5
-10 -9 -10 -20 -1 -12 10 -14 4 -13 -32 1 -41 2 -42 9 -14 10 38 11 24 12
-104 0 -69 -4 -107 -12 -115 -10 -8 -11 -3 -7 26 3 21 1 40 -4 43 -5 4 -9 51
-9 106 l0 99 -85 0 c-85 0 -85 0 -79 -24 3 -14 1 -27 -7 -31 -8 -5 -10 -4 -5
4 4 6 4 20 1 31 -8 25 -75 29 -75 5 0 -8 5 -14 11 -13 6 2 14 -3 16 -9 3 -7 0
-13 -6 -13 -6 0 -12 -19 -13 -42 l-1 -43 -7 45 c-4 25 -8 38 -10 30 -2 -8 -6
3 -10 25 l-7 40 -3 -35 -2 -35 -8 30 -8 30 -1 -27 c0 -15 -5 -29 -9 -32 -4 -2
-6 11 -4 30 4 29 1 34 -16 34 -17 0 -21 -10 -31 -82 -5 -46 -13 -130 -16 -188
-3 -58 -8 -114 -10 -125 -2 -11 -4 -31 -4 -44 -1 -13 -4 -22 -7 -19 -3 3 -1
55 5 114 8 84 7 111 -2 119 -8 6 -12 32 -10 70 l2 60 -13 -55 c-6 -30 -14 -48
-17 -40 -3 8 -9 -5 -13 -29 -8 -54 -20 -46 -17 11 1 24 -1 79 -5 123 -7 73 -8
77 -15 40 -4 -22 -5 -59 -4 -82 3 -30 0 -43 -12 -47 -13 -6 -15 5 -11 84 l4
90 -1067 0 c-739 0 -1070 -3 -1074 -11z m2760 -114 c-11 -38 -14 -42 -10 -15
7 63 19 107 22 85 2 -11 -4 -42 -12 -70z m-892 48 c-7 -2 -13 -14 -14 -26 0
-12 -3 -16 -6 -9 -7 18 4 42 19 41 10 0 10 -2 1 -6z m487 -20 c0 -15 2 -16 10
-3 7 11 10 6 10 -22 0 -28 -4 -36 -14 -32 -10 4 -16 -7 -21 -43 -10 -79 -25
-87 -25 -15 0 40 4 61 10 57 6 -4 10 10 10 34 0 23 5 41 10 41 6 0 10 -8 10
-17z m37 -90 c-3 -10 -5 -4 -5 12 0 17 2 24 5 18 2 -7 2 -21 0 -30z m-540 5
c-3 -8 -6 -5 -6 6 -1 11 2 17 5 13 3 -3 4 -12 1 -19z m470 -210 c-2 -18 -4 -6
-4 27 0 33 2 48 4 33 2 -15 2 -42 0 -60z m-1390 -54 c-3 -3 -12 -4 -19 -1 -8
3 -5 6 6 6 11 1 17 -2 13 -5z m2913 -49 c-14 -7 -27 -11 -30 -9 -6 7 22 24 40
23 9 0 5 -6 -10 -14z m-2645 -35 c3 -5 1 -10 -4 -10 -6 0 -11 5 -11 10 0 6 2
10 4 10 3 0 8 -4 11 -10z m1212 -62 c-3 -7 -5 -2 -5 12 0 14 2 19 5 13 2 -7 2
-19 0 -25z m1514 23 c-9 -6 -10 -11 -2 -15 17 -11 13 -20 -14 -33 -22 -10 -25
-9 -25 9 0 20 25 47 45 48 6 0 4 -4 -4 -9z m-3074 -27 c-3 -3 -12 -4 -19 -1
-8 3 -5 6 6 6 11 1 17 -2 13 -5z m3220 0 c-3 -3 -12 -4 -19 -1 -8 3 -5 6 6 6
11 1 17 -2 13 -5z m-3299 -30 c-9 -10 -21 -13 -29 -8 -9 5 -8 9 7 15 31 12 39
10 22 -7z m-74 -59 c-4 -8 -7 -15 -9 -15 -2 0 -5 7 -9 15 -3 9 0 15 9 15 9 0
12 -6 9 -15z m-64 -19 c0 -2 -7 -7 -16 -10 -8 -3 -12 -2 -9 4 6 10 25 14 25 6z
m413 -21 c1 -5 -9 -10 -23 -11 -14 0 -34 -3 -45 -6 -64 -20 -67 -20 -63 -7 9
27 124 48 131 24z m1247 -6 c0 -5 -7 -9 -15 -9 -15 0 -20 12 -9 23 8 8 24 -1
24 -14z m107 -11 c-3 -8 -6 -5 -6 6 -1 11 2 17 5 13 3 -3 4 -12 1 -19z m-1259
0 c16 -16 16 -33 0 -21 -7 5 -35 8 -63 7 -48 -3 -49 -2 -25 11 31 18 72 19 88
3z m1312 -12 c0 -3 -4 -8 -10 -11 -5 -3 -10 -1 -10 4 0 6 5 11 10 11 6 0 10
-2 10 -4z m-61 -68 c-14 -62 -20 -70 -13 -18 4 25 8 48 11 53 10 16 10 5 2
-35z m1491 34 c0 -4 -17 -6 -37 -4 -59 5 -63 10 -10 11 26 1 47 -3 47 -7z
m200 -13 c0 -11 -3 -11 -24 -3 -23 9 -20 23 4 17 11 -3 20 -9 20 -14z m-1763
-21 c-3 -8 -6 -5 -6 6 -1 11 2 17 5 13 3 -3 4 -12 1 -19z m-1189 -4 c35 -2 73
1 85 5 12 4 45 6 73 3 49 -4 50 -4 46 -33 -4 -25 -1 -29 19 -29 35 0 49 -13
43 -37 -6 -21 -44 -40 -44 -22 0 5 -7 9 -15 9 -20 0 -28 -37 -18 -95 7 -41 12
-50 35 -56 23 -6 29 -3 41 25 20 41 37 132 34 179 -2 34 0 37 23 37 27 0 178
-73 229 -111 44 -33 94 -106 86 -127 -9 -21 -16 -61 -16 -86 0 -24 -26 -76
-39 -76 -12 0 -66 -52 -72 -70 -13 -36 -188 -48 -273 -20 -20 7 -39 9 -42 6
-4 -3 -11 -2 -17 3 -6 5 -29 14 -51 21 -41 13 -110 49 -151 78 -59 42 -126
177 -140 281 -8 63 16 125 46 116 12 -4 20 -2 20 5 0 8 6 9 18 4 9 -4 46 -9
80 -10z m1084 -26 c-6 -6 -7 0 -4 19 5 21 7 23 10 9 2 -10 0 -22 -6 -28z
m-1522 4 c0 -15 -2 -15 -10 -2 -13 20 -13 33 0 25 6 -3 10 -14 10 -23z m1649
-47 c-13 -28 -24 -44 -27 -36 -2 7 6 35 19 62 31 61 37 39 8 -26z m-53 28 c-8
-15 -15 -25 -16 -21 0 12 23 58 27 54 3 -2 -2 -17 -11 -33z m131 5 c-3 -8 -6
-5 -6 6 -1 11 2 17 5 13 3 -3 4 -12 1 -19z m1399 -13 c43 -4 64 -2 64 5 0 6 3
9 8 7 4 -3 23 -8 43 -11 58 -9 66 -15 72 -54 8 -51 -7 -169 -28 -217 -48 -112
-137 -186 -274 -229 -46 -15 -92 -28 -102 -29 -10 -2 -22 -6 -25 -10 -4 -4
-44 -7 -90 -7 -63 0 -83 3 -88 15 -3 8 -13 14 -23 13 -51 -4 -75 2 -69 18 4
10 -4 28 -19 46 -38 45 -67 106 -64 136 1 15 -1 38 -5 52 -10 37 9 80 57 122
58 52 130 89 181 92 24 2 58 11 76 20 18 9 34 16 34 16 1 0 2 -37 4 -82 2 -83
38 -248 53 -248 26 0 74 157 64 208 -4 21 -10 31 -12 25 -9 -25 -21 -12 -21
22 0 19 4 32 9 29 5 -3 9 9 9 25 0 24 4 31 19 31 11 0 23 5 26 11 4 6 14 8 22
5 8 -3 43 -8 79 -11z m-3632 -30 c-4 -8 -11 -15 -16 -15 -6 0 -5 6 2 15 7 8
14 15 16 15 2 0 1 -7 -2 -15z m2213 -37 c-3 -8 -6 -5 -6 6 -1 11 2 17 5 13 3
-3 4 -12 1 -19z m-128 -5 c-1 -10 -5 -31 -9 -48 -7 -29 -8 -29 -9 10 -2 38 -2
39 -17 20 -9 -12 -11 -21 -4 -23 12 -4 14 -42 1 -42 -15 0 -21 42 -9 64 19 37
49 48 47 19z m-1779 3 c0 -2 -7 -6 -15 -10 -8 -3 -15 -1 -15 4 0 6 7 10 15 10
8 0 15 -2 15 -4z m-270 -10 c0 -3 -4 -8 -10 -11 -5 -3 -10 -1 -10 4 0 6 5 11
10 11 6 0 10 -2 10 -4z m2137 -28 c-3 -8 -6 -5 -6 6 -1 11 2 17 5 13 3 -3 4
-12 1 -19z m30 -30 c-2 -13 -4 -5 -4 17 -1 22 1 32 4 23 2 -10 2 -28 0 -40z
m114 -9 l-10 -24 0 26 c-1 14 2 29 6 33 12 12 14 -9 4 -35z m-51 16 c4 3 7
-13 6 -34 0 -21 -4 -37 -8 -34 -5 2 -8 -3 -8 -12 0 -8 -6 -18 -14 -21 -8 -3
-20 -19 -26 -35 -7 -16 -16 -29 -20 -29 -4 0 -10 -9 -13 -21 -4 -15 -2 -19 9
-15 21 8 17 -10 -13 -55 -17 -26 -26 -53 -26 -77 l1 -37 -9 30 c-5 17 -7 44
-3 60 4 23 3 26 -5 15 -6 -8 -11 -26 -11 -40 0 -20 -2 -22 -11 -10 -9 13 -11
13 -16 1 -3 -8 -22 -32 -41 -55 -55 -63 -68 -80 -55 -72 7 4 22 2 33 -4 17 -9
25 -6 51 20 21 20 29 37 26 50 -3 11 -1 18 3 15 5 -3 11 1 14 7 3 7 3 1 0 -14
-4 -16 -2 -28 3 -28 13 0 56 32 72 53 13 18 15 18 23 3 13 -23 -5 -43 -44 -51
-27 -6 -138 -99 -136 -114 0 -3 -1 -8 -2 -11 -16 -42 6 -51 26 -11 6 12 15 22
20 21 4 -1 12 8 16 20 8 21 8 21 39 3 24 -14 27 -19 13 -22 -9 -1 -34 -15 -54
-30 -30 -22 -34 -29 -24 -39 16 -15 58 -16 49 -2 -4 6 -10 8 -15 5 -5 -3 -11
-1 -14 4 -10 16 19 19 59 5 21 -7 42 -11 46 -8 15 9 76 -74 67 -90 -2 -2 4
-12 13 -22 28 -33 28 -40 2 -38 -30 1 -41 23 -38 71 2 30 0 32 -24 26 -21 -4
-24 -3 -14 7 10 10 5 17 -24 32 -19 11 -37 18 -39 16 -1 -2 17 -23 42 -47 68
-68 59 -81 -22 -29 -27 18 -52 31 -56 30 -5 -1 -8 2 -8 8 0 5 -7 10 -15 10
-28 0 -15 -17 28 -34 36 -15 39 -19 22 -26 -11 -4 -24 -4 -30 1 -5 5 -13 9
-17 9 -16 0 -7 -15 19 -34 14 -11 23 -14 18 -7 -4 8 4 6 19 -4 30 -20 29 -17
30 -105 1 -36 5 -75 10 -87 4 -14 3 -23 -2 -23 -6 0 -13 11 -16 25 -4 14 -11
25 -17 25 -7 0 -9 -9 -5 -22 3 -13 6 -31 6 -40 0 -10 7 -18 16 -18 9 0 14 -6
11 -12 -2 -7 -11 -12 -21 -10 -9 2 -16 -2 -16 -8 0 -6 8 -10 18 -9 22 3 52
-10 52 -23 0 -5 -9 -6 -20 -3 -12 4 -26 0 -36 -10 -9 -9 -23 -14 -30 -11 -8 3
-14 -1 -14 -10 0 -10 -6 -14 -14 -11 -7 3 -23 -1 -33 -8 -18 -13 -22 -11 -42
15 -12 17 -27 30 -34 30 -8 0 -8 -3 -2 -8 17 -12 45 -60 45 -78 0 -12 5 -10
21 10 14 18 25 24 33 17 6 -5 15 -9 21 -9 20 -1 14 -19 -10 -30 -14 -6 -25
-16 -25 -22 0 -6 4 -8 10 -5 6 4 7 -1 3 -11 -5 -15 -7 -15 -15 0 -25 45 -32
-4 -9 -66 4 -13 6 -32 4 -43 -10 -51 -9 -66 1 -81 10 -13 11 -9 8 20 -2 20 0
36 6 36 13 0 20 -63 10 -90 -17 -45 5 -39 26 6 18 40 23 45 29 29 4 -10 4 -21
-1 -24 -5 -3 -13 -17 -17 -29 -7 -24 -7 -24 14 -5 71 62 69 61 45 15 -18 -37
-9 -62 13 -35 10 13 16 15 19 5 3 -6 9 -10 12 -8 4 2 16 -5 27 -16 20 -20 20
-20 -6 -13 -16 4 -30 2 -34 -5 -4 -6 -16 -8 -28 -4 -19 6 -20 5 -9 -8 10 -13
10 -17 -3 -22 -8 -3 -15 -13 -14 -23 0 -16 1 -16 8 1 6 15 9 17 16 6 6 -9 11
-7 21 11 8 15 13 18 13 9 1 -8 -3 -22 -8 -29 -6 -9 -6 -22 0 -34 7 -13 7 -23
-2 -33 -10 -12 -9 -13 3 -9 19 7 33 -24 18 -39 -7 -7 -10 -5 -10 7 0 9 -4 17
-10 17 -13 0 -13 -3 3 -33 l13 -26 17 28 c13 22 14 30 4 40 -7 7 -12 15 -13
19 0 4 -4 15 -9 25 -4 10 -5 20 -2 23 9 10 27 -6 27 -24 0 -9 7 -26 16 -37 13
-17 16 -18 25 -5 8 11 9 5 4 -22 -4 -24 -2 -38 5 -38 5 0 10 8 10 18 0 14 2
15 10 2 5 -8 10 -10 10 -4 0 5 -4 14 -9 20 -6 5 -4 16 5 28 7 11 17 16 21 13
4 -4 1 -13 -5 -19 -8 -8 -8 -15 -2 -23 12 -14 2 -48 -11 -39 -5 3 -9 -2 -9
-10 0 -21 -25 -10 -38 17 -6 12 -11 16 -11 9 -1 -7 -5 -10 -11 -7 -5 3 -10 0
-10 -8 0 -8 -7 -20 -15 -27 -9 -7 -13 -15 -11 -18 3 -2 -1 -11 -9 -19 -8 -8
-15 -23 -15 -34 0 -10 -5 -19 -11 -19 -8 0 -7 -5 1 -15 11 -13 10 -14 -4 -9
-11 4 -16 1 -16 -10 0 -9 5 -16 10 -16 11 0 14 -29 3 -31 -41 -7 -53 -5 -53
10 0 9 -5 23 -11 31 -9 12 -10 12 -5 -3 4 -12 2 -17 -6 -15 -7 3 -14 19 -16
37 -3 33 -10 45 -46 81 -21 21 -16 35 15 43 17 5 20 2 16 -14 -3 -11 1 -25 8
-33 8 -7 12 -16 9 -19 -3 -3 -1 -8 5 -11 10 -7 21 19 26 60 2 19 -8 34 -41 60
-38 31 -52 36 -118 43 -42 4 -79 11 -84 16 -4 6 -19 24 -33 40 -38 42 -45 71
-20 78 12 3 22 -1 26 -11 4 -12 11 -8 27 19 11 19 24 36 29 37 5 2 9 8 9 13 0
6 -3 8 -8 5 -10 -6 -2 77 9 89 5 5 9 17 9 28 0 10 5 15 10 12 6 -3 10 0 11 7
0 10 2 10 6 1 9 -24 24 -13 21 15 -2 16 2 26 8 25 7 -1 14 7 17 17 4 14 0 20
-11 20 -18 1 -52 23 -52 34 0 13 30 5 39 -11 17 -32 31 -2 16 34 -10 23 -21
32 -42 35 -20 2 -28 9 -29 23 0 11 -6 31 -13 44 -8 15 -10 36 -5 60 6 34 7 34
14 11 6 -24 6 -24 13 8 6 28 10 32 27 27 28 -9 25 7 -6 38 -27 27 -25 47 5 47
25 0 33 11 20 26 -6 8 -9 21 -5 29 7 19 2 19 -17 1 -9 -9 -19 -11 -28 -5 -12
8 -12 10 1 19 8 5 22 10 31 10 20 0 93 -67 78 -72 -7 -2 -9 -13 -5 -25 4 -13
13 -20 21 -17 8 3 12 11 10 17 -2 7 -6 25 -9 40 -4 15 -10 25 -15 23 -5 -3
-11 3 -14 14 -3 11 -3 20 0 20 9 0 43 -42 43 -54 0 -7 3 -6 8 1 6 9 13 3 26
-18 10 -17 20 -28 23 -25 3 3 -4 21 -16 41 -27 46 -27 53 2 29 55 -49 57 -49
52 -7 -2 21 -4 44 -4 51 -1 10 -5 10 -17 -2 -10 -11 -13 -24 -8 -38 6 -21 5
-21 -15 4 -11 14 -21 29 -21 33 0 13 -28 34 -35 27 -5 -4 -5 1 -2 10 3 10 2
20 -3 23 -6 4 -10 0 -10 -8 0 -8 -7 -18 -16 -21 -8 -3 -13 -10 -10 -15 6 -10
-26 -21 -61 -21 -12 0 -25 5 -29 12 -4 7 -3 8 4 4 7 -4 12 -1 12 8 0 10 -9 16
-25 16 -16 0 -25 6 -25 16 0 9 8 14 18 13 28 -2 42 0 40 9 -2 4 7 18 19 31 13
14 22 26 20 27 -7 8 -47 -10 -47 -20 0 -7 -16 -18 -35 -25 -19 -7 -35 -17 -35
-22 0 -5 -6 -9 -14 -9 -8 0 -24 -12 -35 -26 -12 -15 -21 -21 -21 -14 0 6 16
26 35 43 19 17 35 37 35 45 0 8 6 12 15 8 8 -3 18 0 22 7 5 7 25 21 45 31 40
22 51 61 13 50 -34 -10 -44 -27 -12 -22 35 7 34 3 -3 -15 -16 -9 -40 -13 -52
-10 -17 3 -19 2 -9 -5 17 -12 -3 -26 -26 -18 -12 5 -14 9 -5 18 16 16 15 28
-2 28 -7 0 -20 -10 -28 -22 -9 -13 -17 -17 -21 -11 -4 5 1 18 11 27 82 77 122
119 122 127 0 4 -12 -3 -26 -16 -15 -14 -30 -22 -34 -20 -4 3 -10 -5 -14 -18
-3 -13 -18 -27 -36 -34 -16 -6 -30 -9 -30 -7 0 2 25 29 55 59 30 31 55 60 55
65 0 11 -32 1 -43 -14 -5 -6 -6 -1 -2 11 10 35 -12 36 -39 1 -14 -18 -26 -27
-26 -20 0 8 9 25 20 39 11 14 18 28 17 32 -2 3 8 17 21 31 l25 25 -6 -32 c-4
-22 -2 -33 9 -37 8 -3 17 1 19 9 14 44 17 50 22 37 9 -23 33 8 33 41 0 17 8
39 17 49 9 10 26 42 37 70 22 55 50 78 44 37 -1 -13 -10 -24 -18 -24 -8 0 -16
-8 -18 -17 -2 -10 2 -18 9 -18 6 0 18 8 26 18 8 9 7 3 -3 -15 -10 -18 -21 -30
-26 -27 -9 6 -11 -7 -9 -46 2 -21 0 -22 -9 -10 -9 12 -10 10 -5 -9 5 -16 4
-21 -4 -17 -6 4 -11 0 -11 -9 0 -8 -4 -23 -9 -33 -5 -9 -12 -25 -15 -34 -3
-11 -13 -16 -26 -13 -26 5 -27 -11 -1 -18 25 -6 57 27 66 68 7 29 51 103 69
117 5 3 16 0 23 -8 8 -8 18 -12 23 -9 5 3 10 -1 13 -7 4 -10 7 -11 18 0 9 9
10 12 1 12 -17 0 -15 35 4 51 10 8 13 21 9 38 -4 19 -3 22 4 12 8 -12 11 -9
16 12 4 15 11 27 16 27 5 0 9 6 9 14 0 8 4 18 10 21 6 4 7 -1 3 -11 -5 -12 -3
-15 6 -9 9 5 11 20 8 44 -3 20 -3 30 0 23 2 -6 8 -10 13 -7z m90 -1 c0 -8 -4
-12 -10 -9 -5 3 -10 10 -10 16 0 5 5 9 10 9 6 0 10 -7 10 -16z m-2292 -20 c-9
-9 -21 -13 -27 -9 -16 10 -3 25 22 25 20 0 20 -1 5 -16z m677 -14 c3 -5 1 -10
-4 -10 -6 0 -11 5 -11 10 0 6 2 10 4 10 3 0 8 -4 11 -10z m1385 -22 c0 -36 -4
-35 -14 5 -4 16 -2 27 4 27 5 0 10 -14 10 -32z m67 -10 c-3 -7 -5 -2 -5 12 0
14 2 19 5 13 2 -7 2 -19 0 -25z m-31 -33 c-4 -19 -12 -35 -17 -35 -6 0 -8 -10
-4 -22 6 -22 5 -22 -8 1 -10 17 -16 20 -22 11 -6 -10 -9 -10 -15 1 -10 16 -1
41 12 33 6 -4 14 0 19 7 7 11 9 11 9 1 0 -7 5 -10 10 -7 6 3 10 18 10 32 0 15
3 24 6 20 4 -3 3 -22 0 -42z m-2111 25 c3 -5 -1 -10 -10 -10 -9 0 -13 5 -10
10 3 6 8 10 10 10 2 0 7 -4 10 -10z m1982 -12 c-3 -8 -6 -5 -6 6 -1 11 2 17 5
13 3 -3 4 -12 1 -19z m303 18 c0 -3 -4 -8 -10 -11 -5 -3 -10 -1 -10 4 0 6 5
11 10 11 6 0 10 -2 10 -4z m-2247 -12 c12 -13 -14 -44 -36 -43 -22 2 -22 2 -1
6 16 3 20 9 17 24 -5 18 7 26 20 13z m679 -11 c9 -10 25 -35 36 -55 16 -28 18
-37 8 -41 -14 -5 -36 31 -36 58 0 8 -6 15 -14 15 -17 0 -38 24 -29 33 10 11
19 8 35 -10z m1255 -35 c-3 -8 -6 -5 -6 6 -1 11 2 17 5 13 3 -3 4 -12 1 -19z
m288 -28 c-4 -12 -9 -19 -12 -17 -3 3 -2 15 2 27 4 12 9 19 12 17 3 -3 2 -15
-2 -27z m24 -50 c-13 -27 -26 -47 -30 -44 -4 2 -17 -12 -29 -31 -23 -38 -37
-44 -46 -20 -6 14 -8 13 -21 -2 -10 -14 -10 -9 2 22 9 22 21 45 27 50 11 10 9
1 -10 -44 -3 -9 -1 -12 6 -7 8 5 10 1 6 -11 -5 -16 -3 -15 10 2 9 11 30 35 46
53 17 18 30 39 30 47 0 21 24 58 29 44 1 -5 -7 -32 -20 -59z m-1706 50 c9 0
17 -4 17 -10 0 -15 -31 -12 -60 6 l-25 15 25 -5 c14 -3 33 -6 43 -6z m990 -6
c8 -8 -3 -34 -14 -34 -5 0 -9 9 -9 20 0 19 11 26 23 14z m300 -9 c-3 -9 -8
-14 -10 -11 -3 3 -2 9 2 15 9 16 15 13 8 -4z m-242 -52 c12 -32 23 -65 24 -73
1 -8 7 -26 12 -38 5 -13 8 -42 7 -65 -1 -23 3 -48 9 -56 9 -10 7 -16 -6 -26
-9 -7 -17 -17 -17 -24 0 -6 -4 -11 -9 -11 -5 0 -11 -10 -15 -22 -5 -19 -8 -21
-16 -8 -9 13 -12 13 -23 -1 -6 -9 -25 -19 -41 -23 -17 -4 -36 -15 -44 -24 -12
-15 -13 -14 -7 13 3 17 9 39 12 50 5 17 4 18 -11 6 -9 -8 -16 -9 -16 -3 0 6 4
13 10 17 15 9 11 132 -6 146 -8 6 -14 18 -14 26 0 11 4 11 22 2 16 -9 23 -9
26 0 7 20 40 12 62 -16 12 -16 19 -23 16 -17 -8 16 -16 191 -9 198 10 10 10 9
34 -51z m583 22 c-4 -8 -8 -15 -10 -15 -2 0 -4 7 -4 15 0 8 4 15 10 15 5 0 7
-7 4 -15z m-359 -25 c-4 -12 -9 -19 -12 -17 -3 3 -2 15 2 27 4 12 9 19 12 17
3 -3 2 -15 -2 -27z m-1852 13 c-7 -2 -19 -2 -25 0 -7 3 -2 5 12 5 14 0 19 -2
13 -5z m1901 -57 c-27 -42 -33 -30 -10 21 16 35 22 41 24 25 2 -11 -4 -32 -14
-46z m-1804 44 c0 -5 -2 -10 -4 -10 -3 0 -8 5 -11 10 -3 6 -1 10 4 10 6 0 11
-4 11 -10z m786 -26 c16 -15 23 -23 15 -19 -11 6 -13 4 -8 -8 11 -28 -21 -8
-37 24 -18 36 -8 37 30 3z m-36 -4 c0 -5 -5 -10 -11 -10 -5 0 -7 5 -4 10 3 6
8 10 11 10 2 0 4 -4 4 -10z m2891 -14 c-7 -8 -10 -19 -7 -25 3 -5 -1 -11 -9
-15 -9 -3 -12 -12 -8 -22 5 -13 0 -15 -25 -13 -21 3 -37 -3 -49 -16 -27 -29
-60 -46 -78 -39 -9 4 -24 -1 -34 -10 -10 -9 -41 -18 -75 -20 -31 -2 -64 -10
-73 -18 -15 -12 -15 -11 -3 9 14 21 89 41 109 28 6 -3 13 1 18 9 4 8 33 25 64
39 31 14 74 40 95 59 42 37 76 59 83 52 2 -2 -2 -10 -8 -18z m-1914 8 c-3 -3
-12 -4 -19 -1 -8 3 -5 6 6 6 11 1 17 -2 13 -5z m326 -9 c-3 -9 -8 -14 -10 -11
-3 3 -2 9 2 15 9 16 15 13 8 -4z m-2123 -11 c0 -16 -36 -24 -49 -11 -18 18
-13 24 19 24 17 0 30 -6 30 -13z m4455 6 c3 -5 1 -10 -4 -10 -6 0 -11 5 -11
10 0 6 2 10 4 10 3 0 8 -4 11 -10z m-3740 -10 c-3 -5 -11 -10 -16 -10 -6 0 -7
5 -4 10 3 6 11 10 16 10 6 0 7 -4 4 -10z m1493 -48 c-19 -23 -26 -26 -36 -16
-17 18 -15 24 8 24 11 0 20 6 20 13 0 7 6 19 13 26 24 24 20 -18 -5 -47z
m-1294 32 c3 -8 2 -12 -4 -9 -6 3 -10 10 -10 16 0 14 7 11 14 -7z m1944 -55
c-2 -21 -1 -39 2 -39 3 0 6 -9 6 -19 0 -11 -5 -19 -10 -18 -5 1 -13 -11 -16
-28 l-6 -30 -17 32 c-16 29 -16 33 -1 41 13 7 14 14 7 27 -11 20 -6 55 8 55 5
0 9 8 9 18 0 25 14 38 18 17 2 -10 2 -35 0 -56z m162 20 c7 -12 5 -21 -7 -30
-14 -12 -16 -12 -11 1 3 9 0 24 -8 35 -8 10 -14 23 -14 28 0 12 29 -12 40 -34z
m-744 18 c-3 -19 -76 -95 -76 -79 0 7 -4 10 -10 7 -5 -3 -10 -1 -10 5 0 7 7
10 15 6 9 -3 15 0 15 10 0 8 4 13 9 9 5 -3 19 8 31 25 24 33 29 37 26 17z
m-2256 -22 c0 -8 -7 -15 -15 -15 -13 0 -14 3 -3 15 16 18 18 18 18 0z m1982
-68 c-26 -28 -59 -34 -40 -8 34 45 42 51 52 41 6 -6 3 -17 -12 -33z m-2212 13
c0 -5 -5 -10 -11 -10 -5 0 -7 5 -4 10 3 6 8 10 11 10 2 0 4 -4 4 -10z m233 3
c-7 -2 -19 -2 -25 0 -7 3 -2 5 12 5 14 0 19 -2 13 -5z m2231 -7 c-3 -8 -13
-17 -22 -21 -13 -5 -13 -2 3 15 21 24 26 25 19 6z m-464 -16 c0 -5 -5 -10 -11
-10 -5 0 -7 5 -4 10 3 6 8 10 11 10 2 0 4 -4 4 -10z m310 -4 c0 -3 -4 -8 -10
-11 -5 -3 -10 -1 -10 4 0 6 5 11 10 11 6 0 10 -2 10 -4z m80 -5 c0 -9 -120
-45 -126 -38 -11 11 6 25 24 21 9 -3 26 1 36 9 20 14 66 20 66 8z m830 -18 c0
-7 5 -13 10 -13 6 0 10 -5 10 -11 0 -6 -13 -8 -35 -5 -55 9 -46 -5 54 -86 12
-10 26 -18 31 -18 6 0 20 -10 32 -22 l21 -21 -5 21 c-5 17 -2 22 13 22 10 0
19 -4 19 -10 0 -5 9 -10 19 -10 10 0 22 -7 25 -16 4 -11 1 -14 -13 -9 -14 4
-24 -3 -38 -27 -21 -36 -20 -58 3 -58 8 0 17 -6 20 -14 3 -8 12 -12 21 -9 12
5 12 7 1 14 -26 17 22 9 55 -8 l32 -18 -27 -3 c-20 -2 -28 -9 -28 -23 0 -15
-6 -20 -22 -17 -15 2 -22 9 -22 21 1 9 -2 17 -6 17 -12 0 -30 -26 -23 -33 3
-4 2 -7 -3 -7 -6 0 -15 5 -21 11 -7 7 -13 7 -17 0 -6 -10 51 -31 85 -31 22 0
28 -8 22 -31 -6 -23 -16 -24 -37 -4 -17 17 -42 20 -51 5 -10 -16 15 -40 41
-40 13 0 24 -4 24 -10 0 -5 -9 -10 -19 -10 -11 0 -21 -6 -23 -12 -3 -8 -9 -4
-17 10 -17 31 -35 28 -27 -4 6 -24 5 -26 -18 -22 -15 3 -26 1 -26 -5 0 -6 -7
-18 -15 -28 -14 -15 -14 -18 1 -33 9 -9 13 -20 10 -24 -4 -3 -10 -2 -14 3 -4
6 -17 16 -29 23 -29 16 -30 0 -3 -35 27 -35 25 -45 -5 -31 -15 7 -24 17 -21
25 3 7 -3 21 -14 30 -11 10 -20 22 -20 29 0 6 -7 11 -15 11 -11 0 -12 -4 -5
-11 5 -5 10 -18 10 -27 0 -9 7 -22 15 -29 24 -20 17 -37 -15 -37 -16 0 -30 2
-30 3 0 1 4 13 9 27 9 23 0 51 -16 53 -4 0 -16 4 -25 8 -22 10 -24 30 -3 22
10 -3 15 1 15 13 0 11 -5 21 -11 23 -5 2 -7 11 -4 21 4 9 11 14 16 11 14 -9
10 29 -6 50 -23 31 -19 54 4 27 25 -29 46 -19 29 12 -10 20 -10 21 5 8 15 -12
17 -11 17 8 0 34 17 24 23 -14 3 -19 13 -43 23 -52 16 -16 16 -16 9 6 -6 20
-4 23 9 18 9 -4 16 -2 16 3 0 6 9 1 20 -10 11 -11 28 -20 38 -20 16 1 16 1 0
14 -10 7 -18 21 -18 30 0 9 -4 16 -10 16 -5 0 -10 9 -10 20 0 11 -7 20 -15 20
-8 0 -15 -5 -15 -10 0 -15 -49 22 -50 38 0 6 -4 12 -9 12 -5 0 -9 19 -9 43 -1
39 0 40 14 23 8 -11 14 -23 14 -28 0 -4 7 -8 15 -8 7 0 18 -7 22 -15 6 -9 13
-11 23 -5 12 7 12 12 2 22 -13 13 -17 48 -4 48 4 0 23 -11 42 -25 37 -27 50
-31 50 -14 0 19 -58 67 -68 57 -6 -6 -12 0 -16 16 -3 14 -14 26 -26 28 -12 2
-20 7 -20 11 1 9 -44 47 -55 47 -4 0 -5 -11 -3 -24 4 -17 1 -23 -9 -19 -8 3
-13 -2 -13 -16 0 -12 -6 -21 -15 -21 -8 0 -15 -4 -15 -10 0 -5 -7 -10 -16 -10
-10 0 -14 6 -10 15 4 10 -1 15 -16 15 l-21 0 22 24 c13 14 31 23 41 21 17 -3
18 -1 4 37 -17 49 -17 49 0 42 7 -3 16 1 19 9 7 19 97 19 97 0z m-3120 -3 c0
-5 -2 -10 -4 -10 -3 0 -8 5 -11 10 -3 6 -1 10 4 10 6 0 11 -4 11 -10z m2327
-13 c-3 -8 -18 -17 -34 -20 -15 -3 -37 -9 -48 -13 -17 -7 -18 -6 -7 8 7 9 27
20 43 23 16 4 32 11 35 16 9 14 18 3 11 -14z m-2254 -7 c-3 -11 -7 -20 -9 -20
-2 0 -4 9 -4 20 0 11 4 20 9 20 5 0 7 -9 4 -20z m237 10 c13 -9 13 -10 0 -9
-8 0 -24 4 -35 9 l-20 9 20 0 c11 0 27 -4 35 -9z m-370 -10 c0 -5 -4 -10 -10
-10 -5 0 -10 5 -10 10 0 6 5 10 10 10 6 0 10 -4 10 -10z m3788 3 c-10 -3 -18
-9 -18 -14 0 -5 -9 -9 -20 -9 -19 0 -26 11 -15 22 3 3 20 5 38 5 17 0 24 -2
15 -4z m-82 -20 c7 -10 17 -19 23 -19 6 -1 18 -2 26 -3 8 0 15 -5 15 -10 0 -4
-27 -11 -60 -15 -33 -4 -58 -11 -55 -16 9 -15 -15 -22 -30 -10 -19 16 -19 31
0 24 22 -9 18 5 -7 27 l-23 18 28 1 c15 0 27 5 27 10 0 17 42 11 56 -7z
m-1386 -33 c0 -5 -4 -10 -10 -10 -5 0 -10 5 -10 10 0 6 5 10 10 10 6 0 10 -4
10 -10z m-1933 -6 c-3 -3 -12 -4 -19 -1 -8 3 -5 6 6 6 11 1 17 -2 13 -5z m76
-1 c-7 -2 -21 -2 -30 0 -10 3 -4 5 12 5 17 0 24 -2 18 -5z m1360 -13 c3 -11 1
-18 -4 -14 -5 3 -9 12 -9 20 0 20 7 17 13 -6z m451 5 c3 -9 0 -15 -8 -15 -7 0
-19 7 -26 15 -10 12 -9 15 8 15 11 0 22 -7 26 -15z m-1747 -1 c-3 -3 -12 -4
-19 -1 -8 3 -5 6 6 6 11 1 17 -2 13 -5z m3030 0 c-3 -3 -12 -4 -19 -1 -8 3 -5
6 6 6 11 1 17 -2 13 -5z m-3352 -19 c-29 -12 -109 -9 -101 4 2 3 33 7 68 7 59
2 61 1 33 -11z m355 5 c0 -5 -2 -10 -4 -10 -3 0 -8 5 -11 10 -3 6 -1 10 4 10
6 0 11 -4 11 -10z m1835 -27 l17 -25 -30 22 c-17 12 -35 19 -41 16 -6 -4 -9
-1 -5 7 8 21 40 10 59 -20z m1350 27 c3 -5 1 -10 -4 -10 -6 0 -11 5 -11 10 0
6 2 10 4 10 3 0 8 -4 11 -10z m-3655 -10 c0 -5 -7 -10 -15 -10 -8 0 -15 5 -15
10 0 6 7 10 15 10 8 0 15 -4 15 -10z m540 -16 c0 -2 -9 -4 -21 -4 -11 0 -18 4
-14 10 5 8 35 3 35 -6z m-170 -4 c0 -6 -11 -8 -27 -4 -40 10 -41 14 -5 14 18
0 32 -5 32 -10z m2706 -27 c11 -16 18 -36 16 -45 -4 -22 -22 -24 -22 -3 0 8
-5 15 -11 15 -6 0 -8 7 -5 16 4 9 1 23 -5 30 -6 8 -7 14 -2 14 5 0 18 -12 29
-27z m-776 -4 c0 -6 -4 -7 -10 -4 -5 3 -10 11 -10 16 0 6 5 7 10 4 6 -3 10
-11 10 -16z m-1656 5 c9 -3 14 -10 11 -15 -7 -10 -35 0 -35 12 0 11 3 11 24 3z
m756 -4 c0 -5 -5 -10 -11 -10 -5 0 -7 5 -4 10 3 6 8 10 11 10 2 0 4 -4 4 -10z
m130 7 c0 -2 -13 -13 -30 -25 -21 -16 -30 -19 -30 -9 0 8 10 19 23 25 23 11
37 14 37 9z m310 -12 c-7 -9 -15 -13 -19 -10 -3 3 1 10 9 15 21 14 24 12 10
-5z m1580 5 c0 -5 -5 -10 -11 -10 -5 0 -7 5 -4 10 3 6 8 10 11 10 2 0 4 -4 4
-10z m-3460 -30 c-8 -5 -22 -9 -30 -9 -10 0 -8 3 5 9 27 12 43 12 25 0z m535
1 l40 -9 -40 0 c-22 0 -51 4 -65 8 l-25 8 25 0 c14 1 43 -3 65 -7z m-593 -19
c-7 -2 -13 -16 -13 -30 -1 -27 -1 -27 -8 3 -9 37 -5 46 16 38 11 -4 13 -8 5
-11z m3478 2 c0 -13 -3 -14 -13 -5 -8 6 -17 8 -20 4 -4 -3 -7 -1 -7 5 0 7 9
12 20 12 12 0 20 -7 20 -16z m-2728 -1 c-19 -4 -21 -7 -11 -19 9 -11 3 -13
-42 -12 -44 1 -50 2 -30 10 14 5 32 6 40 3 11 -3 9 0 -3 10 -18 14 -17 15 25
14 24 -1 34 -4 21 -6z m72 -9 c9 -23 8 -24 -13 -24 -14 0 -18 5 -14 20 6 24
19 26 27 4z m736 12 c0 -3 -4 -8 -10 -11 -5 -3 -10 -1 -10 4 0 6 5 11 10 11 6
0 10 -2 10 -4z m-1030 -26 c0 -5 -2 -10 -4 -10 -3 0 -8 5 -11 10 -3 6 -1 10 4
10 6 0 11 -4 11 -10z m250 0 c0 -5 -5 -10 -11 -10 -5 0 -7 5 -4 10 3 6 8 10
11 10 2 0 4 -4 4 -10z m1516 -5 c11 -27 -1 -33 -19 -9 -16 21 -16 24 -2 24 9
0 18 -7 21 -15z m1154 -5 c3 -3 13 -9 23 -13 9 -3 17 -12 17 -19 0 -9 -3 -9
-12 0 -7 7 -19 12 -27 12 -9 0 -34 9 -56 20 l-40 19 45 -6 c25 -3 47 -9 50
-13z m-3210 -5 c0 -8 -2 -15 -4 -15 -2 0 -6 7 -10 15 -3 8 -1 15 4 15 6 0 10
-7 10 -15z m1760 11 c0 -3 -4 -8 -10 -11 -5 -3 -10 -1 -10 4 0 6 5 11 10 11 6
0 10 -2 10 -4z m1605 -6 c3 -5 1 -10 -4 -10 -6 0 -11 5 -11 10 0 6 2 10 4 10
3 0 8 -4 11 -10z m-3179 -36 c-14 -15 -25 -9 -23 15 1 15 4 16 18 8 13 -8 14
-13 5 -23z m224 16 c0 -5 -4 -10 -10 -10 -5 0 -10 5 -10 10 0 6 5 10 10 10 6
0 10 -4 10 -10z m-460 -10 c-19 -13 -30 -13 -30 0 0 6 10 10 23 10 18 0 19 -2
7 -10z m145 0 c3 -6 -5 -10 -19 -10 -14 0 -28 -4 -31 -10 -3 -5 -14 -10 -24
-10 -10 0 -26 -11 -35 -25 -9 -14 -26 -25 -39 -25 -19 0 -54 -35 -50 -50 1 -3
-13 -5 -30 -4 -18 0 -42 -3 -54 -8 -26 -9 -29 -1 -8 26 12 15 17 17 29 7 21
-18 37 -4 30 25 -6 23 -4 24 32 19 22 -2 46 0 54 5 8 5 12 10 8 10 -17 0 40
48 62 53 45 8 69 7 75 -3z m215 3 c-1 -13 -51 -46 -58 -38 -4 3 4 15 18 25 26
21 40 25 40 13z m167 1 c-3 -3 -12 -4 -19 -1 -8 3 -5 6 6 6 11 1 17 -2 13 -5z
m293 -4 c0 -5 -5 -10 -11 -10 -5 0 -7 5 -4 10 3 6 8 10 11 10 2 0 4 -4 4 -10z
m-1013 -32 c-3 -7 -5 -2 -5 12 0 14 2 19 5 13 2 -7 2 -19 0 -25z m850 26 c-3
-3 -12 -4 -19 -1 -8 3 -5 6 6 6 11 1 17 -2 13 -5z m-727 -14 c0 -5 -4 -10 -10
-10 -5 0 -10 5 -10 10 0 6 5 10 10 10 6 0 10 -4 10 -10z m540 0 c12 -8 9 -10
-13 -10 -16 0 -26 4 -22 10 8 12 16 12 35 0z m210 -10 c0 -5 -4 -10 -10 -10
-5 0 -10 5 -10 10 0 6 5 10 10 10 6 0 10 -4 10 -10z m123 3 c-7 -2 -13 -11
-13 -19 0 -8 -6 -14 -14 -14 -9 0 -12 7 -9 20 3 12 13 20 27 19 11 0 15 -3 9
-6z m994 1 c-3 -3 -12 -4 -19 -1 -8 3 -5 6 6 6 11 1 17 -2 13 -5z m-1172 -13
c-6 -5 -28 -12 -50 -15 l-40 -5 40 13 c49 18 62 19 50 7z m102 3 c-3 -3 -12
-4 -19 -1 -8 3 -5 6 6 6 11 1 17 -2 13 -5z m829 -21 c-10 -10 -19 5 -10 18 6
11 8 11 12 0 2 -7 1 -15 -2 -18z m621 5 c-3 -8 -6 -5 -6 6 -1 11 2 17 5 13 3
-3 4 -12 1 -19z m693 0 c0 -6 -6 -5 -15 2 -8 7 -15 14 -15 16 0 2 7 1 15 -2 8
-4 15 -11 15 -16z m-1455 -17 c-3 -6 -11 -11 -17 -11 -6 0 -6 6 2 15 14 17 26
13 15 -4z m-1240 -1 c3 -5 -1 -10 -10 -10 -9 0 -13 5 -10 10 3 6 8 10 10 10 2
0 7 -4 10 -10z m325 0 c-8 -5 -26 -10 -40 -10 -20 0 -22 2 -10 10 8 5 26 10
40 10 20 0 22 -2 10 -10z m248 -2 c-3 -14 16 -14 86 -2 46 8 43 -10 -4 -19
-27 -6 -43 -27 -20 -27 6 0 10 -4 10 -9 0 -6 -12 -6 -30 -1 -19 5 -28 5 -25
-1 6 -9 -30 -13 -94 -9 -22 1 -31 -2 -27 -9 4 -6 0 -11 -9 -11 -8 0 -18 6 -21
13 -3 8 -20 12 -47 10 l-42 -3 50 14 c28 8 51 10 53 5 5 -14 80 -11 85 4 4 9
8 9 15 -1 7 -11 10 -9 15 7 6 23 0 31 -24 31 -10 0 -21 5 -24 10 -4 6 7 10 24
10 20 0 30 -5 29 -12z m-363 -8 c-27 -12 -43 -12 -25 0 8 5 22 9 30 9 10 0 8
-3 -5 -9z m288 3 c-7 -2 -19 -2 -25 0 -7 3 -2 5 12 5 14 0 19 -2 13 -5z m-53
-13 c-20 -13 -43 -13 -35 0 3 6 16 10 28 10 18 0 19 -2 7 -10z m-225 -10 c3
-5 1 -10 -4 -10 -6 0 -11 5 -11 10 0 6 2 10 4 10 3 0 8 -4 11 -10z m170 0 c-3
-5 -12 -10 -18 -10 -7 0 -6 4 3 10 19 12 23 12 15 0z m1579 -5 c3 -8 1 -15 -4
-15 -6 0 -10 7 -10 15 0 8 2 15 4 15 2 0 6 -7 10 -15z m-1892 -16 c9 -5 35 -8
58 -7 32 1 44 -4 56 -20 8 -12 20 -22 26 -22 6 0 8 3 5 7 -4 3 1 12 11 19 20
13 115 7 106 -7 -3 -5 2 -9 10 -9 25 0 19 -20 -6 -22 -13 0 -36 -2 -53 -4 -40
-3 -114 6 -113 15 2 21 -5 31 -23 31 -19 0 -20 -2 -8 -16 12 -15 11 -16 -9
-10 -13 5 -22 3 -22 -3 0 -6 -9 -11 -21 -11 -11 0 -18 4 -15 9 9 13 -16 20
-36 10 -17 -9 -82 24 -92 48 -5 13 97 7 126 -8z m238 5 c0 -2 -9 -4 -20 -4
-11 0 -20 4 -20 9 0 5 9 7 20 4 11 -3 20 -7 20 -9z m1770 -12 c0 -15 -2 -15
-10 -2 -13 20 -13 33 0 25 6 -3 10 -14 10 -23z m620 -14 c0 -5 -7 -8 -15 -8
-17 0 -18 2 -9 25 5 13 8 14 15 3 5 -7 9 -16 9 -20z m-2002 1 c-12 -7 -24 -7
-35 0 -15 9 -12 10 17 10 29 0 32 -1 18 -10z m342 -9 c0 -5 -5 -10 -11 -10 -5
0 -7 5 -4 10 3 6 8 10 11 10 2 0 4 -4 4 -10z m917 -36 c4 -31 3 -35 -9 -24 -8
8 -12 26 -10 42 6 37 13 30 19 -18z m-2159 18 c-10 -2 -15 -9 -11 -18 5 -14
-7 -18 -58 -14 -14 0 -31 -6 -39 -14 -15 -19 -44 -21 -37 -3 2 6 10 11 16 9 6
-1 14 5 17 13 4 8 18 15 33 15 15 0 36 6 46 14 11 8 26 11 35 8 13 -6 13 -7
-2 -10z m42 2 c0 -8 -4 -12 -10 -9 -5 3 -10 10 -10 16 0 5 5 9 10 9 6 0 10 -7
10 -16z m590 9 c0 -5 -12 -9 -27 -10 -19 -1 -22 1 -12 8 17 11 39 12 39 2z
m1620 3 c0 -3 -4 -8 -10 -11 -5 -3 -10 -1 -10 4 0 6 5 11 10 11 6 0 10 -2 10
-4z m-1380 -10 c0 -2 -9 -6 -20 -9 -11 -3 -18 -1 -14 4 5 9 34 13 34 5z m3160
-6 c0 -5 -5 -10 -11 -10 -5 0 -7 5 -4 10 3 6 8 10 11 10 2 0 4 -4 4 -10z
m-2470 -15 c-7 -8 -10 -22 -6 -30 3 -9 0 -15 -8 -15 -7 0 -18 -10 -25 -22 -11
-21 -11 -21 -5 7 3 17 10 32 15 33 5 2 9 12 9 23 0 11 7 19 16 19 13 0 14 -3
4 -15z m-864 -7 c4 -7 4 -10 -1 -6 -4 4 -17 1 -29 -7 -21 -15 -96 -22 -82 -7
8 7 72 29 93 31 6 1 15 -5 19 -11z m1651 -20 c-3 -7 -5 -2 -5 12 0 14 2 19 5
13 2 -7 2 -19 0 -25z m-1617 12 c0 -5 7 -10 16 -10 8 0 12 -4 9 -10 -11 -18
-41 -11 -41 10 0 11 4 20 8 20 4 0 8 -4 8 -10z m155 1 c3 -5 -6 -8 -20 -7 -35
4 -44 16 -12 16 14 0 28 -4 32 -9z m-545 -17 c0 -2 -7 -4 -15 -4 -8 0 -15 4
-15 10 0 5 7 7 15 4 8 -4 15 -8 15 -10z m80 -10 c0 -11 6 -15 20 -11 11 3 23
0 26 -5 4 -7 30 -8 67 -4 45 4 58 3 50 -5 -6 -6 -35 -11 -64 -12 -30 0 -42 -2
-26 -4 38 -6 34 -23 -6 -21 -19 1 -40 -3 -47 -7 -9 -5 -11 -4 -6 3 5 8 -2 12
-18 12 -14 0 -26 5 -26 10 0 6 12 10 28 10 21 0 24 2 12 10 -8 5 -25 10 -37
10 -23 0 -29 10 -16 23 13 13 43 7 43 -9z m140 6 c0 -5 -7 -10 -16 -10 -8 0
-12 5 -9 10 3 6 10 10 16 10 5 0 9 -4 9 -10z m377 -6 c-30 -16 -44 -14 -32 5
3 6 18 11 33 11 l27 -1 -28 -15z m1334 3 c-1 -12 -15 -9 -19 4 -3 6 1 10 8 8
6 -3 11 -8 11 -12z m-2264 -19 c-3 -8 -6 -5 -6 6 -1 11 2 17 5 13 3 -3 4 -12
1 -19z m770 -4 c-3 -3 -12 -4 -19 -1 -8 3 -5 6 6 6 11 1 17 -2 13 -5z m201 0
c-4 -3 -10 -6 -15 -6 -4 0 -16 -6 -27 -13 -10 -8 -24 -11 -31 -9 -6 3 -35 -4
-64 -16 -55 -21 -96 -26 -86 -10 3 6 19 10 34 10 15 0 33 6 39 13 7 6 39 17
70 23 70 14 87 16 80 8z m54 -24 c-13 -11 -21 -24 -18 -29 3 -5 -1 -11 -8 -14
-8 -3 -17 -1 -19 6 -3 9 -8 8 -20 -2 -10 -7 -17 -9 -17 -4 0 8 87 63 100 62 3
0 -5 -8 -18 -19z m-1155 4 c-3 -3 -12 -4 -19 -1 -8 3 -5 6 6 6 11 1 17 -2 13
-5z m60 0 c-3 -3 -12 -4 -19 -1 -8 3 -5 6 6 6 11 1 17 -2 13 -5z m810 -10 c-3
-3 -12 -4 -19 -1 -8 3 -5 6 6 6 11 1 17 -2 13 -5z m919 -21 c-12 -51 -14 -93
-5 -93 5 0 9 -5 9 -11 0 -8 -4 -8 -14 0 -11 9 -16 9 -22 0 -4 -7 -2 -15 4 -17
7 -2 12 -10 12 -18 0 -7 14 -20 30 -29 32 -17 36 -25 20 -41 -19 -19 -21 -62
-3 -79 13 -14 14 -18 3 -25 -11 -7 -11 -11 -1 -24 11 -13 11 -17 0 -20 -43
-14 -44 -14 -26 -15 30 -2 18 -20 -20 -31 -21 -5 -45 -15 -53 -21 -13 -9 -12
-10 3 -5 33 10 17 -11 -21 -28 -25 -12 -38 -24 -37 -36 2 -23 29 -50 51 -50
10 0 14 -3 11 -7 -10 -9 -57 -10 -57 -1 0 4 -5 8 -11 8 -5 0 -7 -5 -4 -10 4
-6 1 -18 -7 -27 -11 -14 -10 -15 12 -8 14 4 31 12 38 17 13 12 15 7 6 -16 -3
-9 -17 -16 -31 -16 -13 0 -35 -12 -50 -27 -18 -19 -27 -24 -30 -15 -4 10 -9 8
-18 -5 -12 -16 -10 -19 23 -24 36 -5 37 -6 12 -16 -14 -6 -29 -7 -35 -3 -8 7
-38 7 -66 1 -4 0 -6 -8 -5 -17 1 -12 -10 -18 -39 -21 -38 -4 -39 -3 -20 12
l20 16 -20 -4 c-11 -3 -29 -8 -40 -12 -19 -7 -19 -6 1 12 12 10 24 25 27 34 6
18 98 34 107 19 3 -5 12 -5 20 0 11 7 11 10 2 10 -7 0 -12 8 -10 18 2 14 -3
16 -27 14 -23 -3 -27 -1 -18 8 10 10 39 17 91 19 6 1 12 6 12 11 0 6 -19 10
-42 10 l-43 0 29 15 c33 17 50 19 41 5 -3 -5 -1 -10 4 -10 6 0 11 6 11 14 0 8
10 22 23 31 l22 17 -22 -7 c-25 -7 -30 4 -10 24 10 11 8 12 -10 6 -17 -5 -23
-2 -23 9 0 9 12 18 28 22 35 7 71 22 55 23 -7 1 -13 8 -13 17 0 9 6 14 13 11
7 -3 19 4 25 14 11 17 9 19 -10 19 -30 0 -45 -10 -58 -40 -10 -25 -10 -25 -5
3 6 30 -5 34 -49 17 -15 -5 -26 -6 -26 -1 0 5 4 11 9 13 5 2 3 9 -5 16 -12 11
-14 9 -14 -8 0 -11 -6 -20 -12 -20 -9 0 -8 -3 2 -10 8 -5 12 -10 10 -12 -48
-31 -113 -51 -77 -24 10 8 19 18 20 23 1 4 8 6 17 5 8 -2 3 5 -10 16 -14 12
-21 24 -16 29 5 4 11 2 13 -5 3 -6 9 -9 14 -6 6 3 6 11 -2 20 -6 7 -16 11 -22
7 -6 -4 -7 -1 -3 6 5 7 14 10 22 7 8 -3 17 1 20 9 4 8 11 15 16 15 6 0 8 -7 4
-15 -7 -19 3 -19 28 0 24 18 45 20 28 3 -7 -7 -12 -20 -12 -29 0 -14 7 -17 28
-15 15 2 35 4 45 5 9 0 17 8 17 16 0 12 -4 13 -19 4 -21 -14 -53 -5 -50 13 3
29 -2 40 -16 34 -14 -5 -20 11 -16 37 1 4 -9 2 -21 -4 -14 -8 -18 -14 -10 -17
16 -5 16 -22 0 -22 -7 0 -26 7 -43 16 -19 10 -31 11 -33 5 -2 -6 -8 -11 -13
-11 -4 0 -6 7 -3 15 3 8 22 18 42 21 20 4 42 13 50 20 7 7 20 10 30 7 9 -3 14
-2 9 2 -4 5 0 16 9 26 15 16 14 17 -8 12 l-23 -5 23 16 c23 18 31 43 10 30 -9
-5 -9 -3 1 9 7 9 17 15 21 12 13 -8 34 25 23 36 -6 6 -19 1 -36 -15 -15 -14
-29 -21 -32 -16 -2 4 2 13 10 20 9 7 13 21 10 30 -7 21 17 42 39 34 12 -4 16
0 16 15 0 22 14 28 25 11 3 -5 3 -10 -2 -10 -4 0 -9 -15 -10 -33 -2 -32 -2
-32 14 -9 14 20 41 33 29 13 -3 -5 5 -8 19 -7 26 1 36 16 10 16 -8 0 -15 5
-15 10 0 6 7 10 15 10 8 0 15 4 15 9 0 8 18 16 44 20 4 0 5 -11 2 -26z m624 2
c-6 -17 -5 -35 5 -59 18 -42 18 -49 5 -41 -5 3 -10 16 -11 28 0 21 -1 21 -8 2
-7 -18 -9 -18 -34 7 -15 15 -27 37 -26 50 1 22 1 22 9 -2 l7 -25 11 25 11 25
1 -30 2 -30 8 27 c4 14 11 31 15 37 11 20 15 12 5 -14z m500 15 c0 -5 -5 -10
-11 -10 -5 0 -7 5 -4 10 3 6 8 10 11 10 2 0 4 -4 4 -10z m-1690 -10 c21 -13
10 -18 -30 -12 -29 4 -32 6 -15 13 27 10 28 10 45 -1z m1824 -11 c-6 -11 -24
-2 -24 11 0 5 7 7 15 4 8 -4 12 -10 9 -15z m-2932 -1 c-9 -9 -15 -9 -24 0 -9
9 -7 12 12 12 19 0 21 -3 12 -12z m913 2 c-3 -5 -14 -10 -23 -10 -15 0 -15 2
-2 10 20 13 33 13 25 0z m295 -10 c0 -5 -5 -10 -11 -10 -5 0 -7 5 -4 10 3 6 8
10 11 10 2 0 4 -4 4 -10z m-1303 -15 c7 -12 12 -13 35 -1 27 14 38 12 38 -9 0
-14 -107 -33 -141 -25 -23 6 -22 6 9 19 18 7 32 17 32 22 0 14 18 10 27 -6z
m813 11 c0 -2 -11 -6 -25 -8 -13 -3 -22 -1 -19 3 5 9 44 13 44 5z m730 -2 c0
-8 -19 -13 -24 -6 -3 5 1 9 9 9 8 0 15 -2 15 -3z m-310 -24 c0 -5 -5 -10 -11
-10 -5 0 -7 5 -4 10 3 6 8 10 11 10 2 0 4 -4 4 -10z m1739 -6 c-8 -10 -89 -25
-89 -16 0 7 60 28 79 28 14 0 17 -4 10 -12z m-1459 -3 c0 -5 -7 -11 -15 -15
-15 -5 -20 5 -8 17 9 10 23 9 23 -2z m1020 -6 c0 6 5 3 10 -5 8 -12 10 -12 10
-1 0 11 3 11 15 1 19 -16 19 -40 1 -40 -8 0 -17 -8 -19 -17 -3 -11 -5 -6 -6
11 -1 19 -5 26 -14 23 -8 -3 -14 5 -15 22 -1 20 0 23 8 11 5 -8 10 -10 10 -5z
m475 -1 c-9 -9 -19 -13 -23 -10 -3 4 0 11 8 16 24 15 33 11 15 -6z m-1555 -2
c0 -5 -12 -15 -27 -23 -16 -8 -30 -17 -33 -21 -3 -3 -19 -9 -35 -12 -17 -3
-23 -3 -15 0 8 4 23 14 33 23 15 12 53 33 75 40 1 1 2 -3 2 -7z m2450 -1 c0
-4 -11 -6 -25 -3 -14 2 -25 6 -25 8 0 2 11 4 25 4 14 0 25 -4 25 -9z m-842
-26 c0 -23 -2 -24 -13 -8 -13 18 -11 33 4 33 5 0 9 -11 9 -25z m-1968 -2 c0
-8 -12 -18 -26 -23 -34 -13 -34 -13 -21 13 11 24 47 32 47 10z m2040 7 c0 -5
-5 -10 -11 -10 -5 0 -7 5 -4 10 3 6 8 10 11 10 2 0 4 -4 4 -10z m-3136 -9 c3
-5 -5 -11 -19 -13 -24 -5 -32 2 -18 15 9 10 31 9 37 -2z m1013 -5 c0 -8 -6
-12 -14 -9 -9 4 -16 -3 -20 -17 l-6 -24 -9 23 c-4 13 -6 27 -2 32 9 15 51 10
51 -5z m483 -3 c0 -2 -7 -17 -15 -33 -17 -32 -35 -40 -35 -15 0 17 -16 20 -25
5 -4 -6 -11 -8 -16 -5 -5 4 -9 -1 -9 -9 0 -9 -4 -16 -9 -16 -15 0 0 40 20 50
10 6 28 9 41 7 16 -1 23 3 22 15 -1 10 4 14 12 11 8 -3 14 -7 14 -10z m-813 1
c-3 -3 -12 -4 -19 -1 -8 3 -5 6 6 6 11 1 17 -2 13 -5z m611 -9 c-2 -1 -19 -5
-38 -8 -31 -6 -33 -5 -17 7 10 8 27 12 38 9 11 -3 18 -7 17 -8z m1674 2 c-8
-10 -6 -13 11 -12 12 0 23 -4 24 -10 1 -5 -5 -9 -13 -7 -21 4 -17 -18 8 -39
28 -25 13 -24 -19 1 -14 11 -32 20 -41 20 -11 0 -12 3 -3 14 8 10 9 16 1 21
-14 8 -32 -4 -27 -19 3 -6 -3 -12 -13 -12 -17 0 -17 2 -1 23 16 22 31 30 65
32 14 1 16 -2 8 -12z m58 3 c0 -5 -7 -7 -15 -4 -8 4 -15 8 -15 10 0 2 7 4 15
4 8 0 15 -4 15 -10z m63 -10 c3 -11 1 -18 -4 -14 -5 3 -9 12 -9 20 0 20 7 17
13 -6z m-2236 4 c-3 -3 -12 -4 -19 -1 -8 3 -5 6 6 6 11 1 17 -2 13 -5z m667
-19 c-16 -25 -42 -36 -28 -12 14 23 27 37 35 37 5 0 2 -11 -7 -25z m966 -19
c-14 -14 -22 -2 -14 18 5 14 9 15 15 4 4 -7 4 -17 -1 -22z m110 30 c0 -3 -4
-8 -10 -11 -5 -3 -10 -1 -10 4 0 6 5 11 10 11 6 0 10 -2 10 -4z m-1480 -16 c0
-5 -5 -10 -11 -10 -5 0 -7 5 -4 10 3 6 8 10 11 10 2 0 4 -4 4 -10z m-535 -10
c-3 -5 -12 -10 -18 -10 -7 0 -6 4 3 10 19 12 23 12 15 0z m365 0 c0 -5 -4 -10
-9 -10 -6 0 -13 5 -16 10 -3 6 1 10 9 10 9 0 16 -4 16 -10z m70 0 c0 -5 9 -10
19 -10 11 0 23 5 26 10 8 13 25 13 25 1 0 -14 -93 -56 -97 -44 -2 6 -13 9 -23
6 -11 -3 -20 -1 -20 5 0 5 11 13 25 16 14 4 25 11 25 16 0 6 5 10 10 10 6 0
10 -4 10 -10z m141 -14 c-6 -8 -24 -16 -39 -19 -15 -3 -38 -8 -52 -11 -25 -6
-25 -6 -2 5 12 7 22 16 22 20 0 5 14 6 30 3 19 -4 30 -2 30 5 0 6 5 11 11 11
8 0 8 -4 0 -14z m99 -1 c-7 -8 -22 -15 -34 -15 -21 1 -21 1 -2 15 27 21 53 20
36 0z m280 -10 c0 -8 -4 -15 -10 -15 -5 0 -10 7 -10 15 0 8 5 15 10 15 6 0 10
-7 10 -15z m610 11 c0 -3 -4 -8 -10 -11 -5 -3 -10 -1 -10 4 0 6 5 11 10 11 6
0 10 -2 10 -4z m281 -19 c-13 -13 -26 -3 -16 12 3 6 11 8 17 5 6 -4 6 -10 -1
-17z m85 -14 c-11 -11 -19 6 -11 24 8 17 8 17 12 0 3 -10 2 -21 -1 -24z
m-1653 16 c-8 -8 -16 -8 -30 0 -16 9 -14 10 12 11 21 0 26 -3 18 -11z m1772
-51 c4 -35 9 -57 12 -50 6 16 20 15 27 -3 3 -8 -2 -22 -11 -30 -8 -9 -13 -19
-9 -22 3 -4 12 2 20 12 13 18 14 17 20 -12 4 -17 14 -34 22 -37 9 -4 14 -20
14 -51 0 -50 -4 -53 -39 -29 -29 21 -91 26 -98 8 -2 -7 -12 -15 -20 -18 -13
-5 -13 -4 -4 7 9 11 8 17 -4 27 -8 7 -15 24 -15 39 0 37 -11 71 -22 71 -5 0
-6 -5 -2 -12 4 -7 9 -34 11 -61 2 -40 0 -48 -12 -43 -10 3 -15 -1 -16 -12 -1
-15 -2 -15 -6 1 -6 24 -29 15 -25 -9 3 -15 1 -16 -8 -7 -7 6 -12 24 -12 40 0
15 -4 33 -8 38 -5 6 -2 19 6 29 12 17 14 17 14 4 0 -9 5 -29 11 -45 10 -26 12
-26 19 -8 8 23 2 55 -11 55 -5 0 -9 6 -9 13 1 6 9 2 19 -10 l19 -23 -1 35 c-1
41 19 68 33 45 17 -27 22 -2 6 29 -25 47 -21 63 11 50 36 -13 56 -4 48 21 -3
11 -2 20 3 20 5 0 13 -28 17 -62z m315 52 c0 -5 -6 -10 -12 -10 -7 0 -26 -7
-42 -15 -16 -9 -31 -13 -34 -10 -3 2 15 14 39 25 52 23 49 23 49 10z m-1750
-4 c0 -2 -7 -7 -16 -10 -8 -3 -12 -2 -9 4 6 10 25 14 25 6z m1020 -11 c0 -8
-7 -15 -15 -15 -16 0 -20 12 -8 23 11 12 23 8 23 -8z m100 5 c0 -5 -5 -10 -11
-10 -5 0 -7 5 -4 10 3 6 8 10 11 10 2 0 4 -4 4 -10z m730 -11 c0 -5 -4 -9 -10
-9 -5 0 -10 7 -10 16 0 8 5 12 10 9 6 -3 10 -10 10 -16z m-1810 2 c0 -5 -10
-13 -22 -17 -12 -3 -33 -17 -47 -30 -14 -13 -35 -24 -46 -24 -13 0 0 13 40 40
62 41 75 47 75 31z m-403 -7 c-3 -3 -12 -4 -19 -1 -8 3 -5 6 6 6 11 1 17 -2
13 -5z m1677 -46 c4 7 4 17 0 24 -4 7 -3 8 4 4 17 -10 15 -43 -2 -49 -14 -6
-37 39 -35 67 0 6 6 -5 13 -23 8 -22 15 -31 20 -23z m456 42 c0 -5 -2 -10 -4
-10 -3 0 -8 5 -11 10 -3 6 -1 10 4 10 6 0 11 -4 11 -10z m-1580 -4 c0 -2 -7
-6 -15 -10 -8 -3 -15 -1 -15 4 0 6 7 10 15 10 8 0 15 -2 15 -4z m65 -6 c-3 -5
-11 -10 -16 -10 -6 0 -7 5 -4 10 3 6 11 10 16 10 6 0 7 -4 4 -10z m1485 1 c0
-5 -7 -12 -16 -15 -20 -8 -7 -29 15 -22 11 4 10 2 -4 -9 -11 -9 -26 -13 -33
-10 -8 3 -18 5 -23 5 -6 0 -7 5 -3 12 5 7 0 9 -14 6 -38 -10 -13 18 26 29 50
14 52 14 52 4z m-2290 -11 c0 -5 -5 -10 -11 -10 -5 0 -7 5 -4 10 3 6 8 10 11
10 2 0 4 -4 4 -10z m-566 -18 c-11 -10 -23 -24 -27 -32 -4 -12 -6 -12 -6 1 -1
9 9 24 22 32 30 21 37 21 11 -1z m692 -8 c-1 -20 -8 -27 -31 -32 -16 -3 -33
-5 -37 -4 -5 1 -8 -3 -8 -9 0 -8 -4 -8 -15 1 -8 6 -36 12 -62 12 -39 0 -44 2
-29 10 11 6 51 11 89 12 42 1 72 6 74 12 2 7 -6 10 -23 6 -19 -3 -25 -1 -20 7
4 6 20 11 36 11 24 0 28 -4 26 -26z m521 19 c-4 -3 -2 -12 5 -20 8 -10 8 -17
0 -25 -15 -15 -36 0 -23 16 7 9 7 16 -1 24 -9 9 -8 12 7 12 10 0 15 -3 12 -7z
m-617 -7 c0 -3 -4 -8 -10 -11 -5 -3 -10 -1 -10 4 0 6 5 11 10 11 6 0 10 -2 10
-4z m670 -11 c-7 -8 -18 -15 -24 -15 -6 0 -2 7 8 15 25 19 32 19 16 0z m1005
-73 c3 -18 4 -32 2 -32 -6 0 -37 95 -37 112 1 18 26 -41 35 -80z m38 48 c-24
-23 -34 -16 -20 14 9 18 15 22 25 14 10 -9 9 -14 -5 -28z m77 15 c0 -8 -2 -15
-4 -15 -2 0 -6 7 -10 15 -3 8 -1 15 4 15 6 0 10 -7 10 -15z m-2550 1 c0 -3 -4
-8 -10 -11 -5 -3 -10 -1 -10 4 0 6 5 11 10 11 6 0 10 -2 10 -4z m2290 -6 c0
-5 -4 -10 -10 -10 -5 0 -10 5 -10 10 0 6 5 10 10 10 6 0 10 -4 10 -10z m-1202
-17 c-10 -2 -26 -2 -35 0 -10 3 -2 5 17 5 19 0 27 -2 18 -5z m408 -18 c-4 -14
-2 -25 4 -25 5 0 10 -4 10 -10 0 -5 -7 -10 -15 -10 -8 0 -15 7 -15 16 0 8 -4
12 -10 9 -15 -10 -12 3 7 25 23 26 26 25 19 -5z m759 16 c3 -5 1 -12 -5 -16
-5 -3 -10 1 -10 9 0 18 6 21 15 7z m249 -42 c-9 -15 -23 -1 -19 19 2 9 4 22 5
27 1 6 5 -1 11 -13 5 -13 6 -28 3 -33z m454 28 c2 -10 -3 -17 -12 -17 -10 0
-16 9 -16 21 0 24 23 21 28 -4z m80 11 c-13 -11 -32 -58 -23 -58 16 0 35 15
36 29 0 10 2 11 6 3 2 -6 10 -10 16 -6 7 3 4 -1 -5 -9 -21 -16 -24 -53 -5 -60
6 -3 -1 -6 -18 -6 -16 -1 -41 -4 -54 -8 -18 -4 -22 -3 -17 6 5 8 0 14 -13 18
-27 7 -26 12 4 53 29 40 43 50 69 50 18 0 18 -1 4 -12z m-1868 -2 c0 -3 -4 -8
-10 -11 -5 -3 -10 -1 -10 4 0 6 5 11 10 11 6 0 10 -2 10 -4z m275 -6 c-3 -5
-12 -10 -18 -10 -7 0 -6 4 3 10 19 12 23 12 15 0z m1720 -8 c-3 -3 -11 0 -18
7 -9 10 -8 11 6 5 10 -3 15 -9 12 -12z m-3038 -14 c-3 -8 -6 -5 -6 6 -1 11 2
17 5 13 3 -3 4 -12 1 -19z m731 -20 c-2 -7 8 -13 22 -14 68 -6 108 -18 118
-35 12 -19 3 -23 -45 -22 -9 1 -10 -4 -2 -18 9 -18 7 -19 -18 -13 -15 4 -29
11 -31 16 -2 4 -8 8 -13 8 -6 0 -7 -4 -4 -10 3 -5 1 -10 -4 -10 -6 0 -11 5
-11 10 0 6 -9 10 -19 10 -14 0 -18 6 -15 23 2 12 2 16 -2 10 -8 -18 -24 -16
-24 3 0 10 -6 14 -15 11 -8 -4 -17 -2 -20 2 -3 5 12 16 33 24 46 20 53 20 50
5z m366 -3 c-25 -19 -34 -19 -34 0 0 10 10 15 27 15 26 0 26 -1 7 -15z m-114
-5 c0 -5 -8 -10 -17 -10 -10 0 -36 -2 -58 -5 -37 -4 -37 -3 10 9 64 18 65 18
65 6z m2047 -6 c2 -5 -10 -11 -27 -12 -17 -1 -30 3 -30 9 0 6 7 9 15 5 8 -3
15 -1 15 5 0 13 22 7 27 -7z m-1697 -5 c0 -6 -9 -13 -20 -16 -11 -3 -20 -10
-20 -16 0 -6 -6 -3 -13 8 -10 12 -16 14 -21 7 -4 -7 -12 -12 -18 -12 -6 0 -3
9 8 19 20 21 84 28 84 10z m-1253 -31 c-3 -7 -5 -2 -5 12 0 14 2 19 5 13 2 -7
2 -19 0 -25z m1320 7 c-4 -8 -11 -15 -17 -15 -6 0 -6 7 2 20 14 22 24 19 15
-5z m1683 15 c0 -5 -2 -10 -4 -10 -3 0 -8 5 -11 10 -3 6 -1 10 4 10 6 0 11 -4
11 -10z m85 0 c3 -5 -3 -10 -15 -10 -12 0 -18 5 -15 10 3 6 10 10 15 10 5 0
12 -4 15 -10z m-2567 -7 c-10 -2 -26 -2 -35 0 -10 3 -2 5 17 5 19 0 27 -2 18
-5z m1697 -23 c8 -24 35 -27 35 -4 0 14 3 14 15 4 9 -7 18 -10 22 -7 10 11 31
-25 25 -45 -5 -21 -7 -21 -48 -9 -18 5 -37 5 -47 -1 -13 -7 -17 -5 -17 11 0
11 -4 23 -10 26 -15 9 -12 45 4 45 8 0 18 -9 21 -20z m-1631 -23 c-21 -12 -30
-1 -14 18 10 13 15 13 21 3 5 -8 2 -16 -7 -21z m376 23 c0 -5 -7 -10 -16 -10
-8 0 -12 5 -9 10 3 6 10 10 16 10 5 0 9 -4 9 -10z m40 0 c-20 -13 -33 -13 -25
0 3 6 14 10 23 10 15 0 15 -2 2 -10z m-87 -27 c-7 -2 -19 -2 -25 0 -7 3 -2 5
12 5 14 0 19 -2 13 -5z m267 -8 c0 -8 -4 -15 -10 -15 -5 0 -7 7 -4 15 4 8 8
15 10 15 2 0 4 -7 4 -15z m124 -1 c8 -22 8 -24 -8 -24 -18 0 -29 16 -21 30 9
15 22 12 29 -6z m-507 -15 c42 -17 161 -18 167 -2 3 7 13 13 23 13 15 0 16 -2
3 -10 -12 -7 -8 -10 15 -10 21 0 26 -3 18 -11 -7 -7 -46 -11 -102 -10 -50 1
-96 -1 -101 -4 -5 -3 -44 -7 -87 -9 -170 -7 -503 -95 -688 -180 -43 -20 -80
-35 -82 -33 -5 6 141 71 237 105 125 45 211 68 340 92 211 39 220 41 220 56 0
17 1 17 37 3z m594 -38 c-7 -11 -19 -21 -28 -21 -14 0 -14 2 3 14 18 14 18 15
-6 25 -18 7 -20 10 -7 10 9 1 17 6 17 13 0 8 6 7 16 -4 13 -12 14 -20 5 -37z
m1822 42 c-7 -2 -19 -2 -25 0 -7 3 -2 5 12 5 14 0 19 -2 13 -5z m-2091 -25
c-14 -14 -16 -32 -2 -23 5 3 17 2 26 -3 14 -8 11 -10 -15 -14 -18 -3 -34 -1
-38 5 -3 5 -10 -1 -17 -14 -6 -12 -18 -25 -26 -27 -13 -5 -13 -3 -1 11 8 11 9
17 3 17 -6 0 -9 7 -6 15 4 8 10 12 15 9 5 -3 9 0 9 5 0 6 9 11 20 11 11 0 20
5 20 10 0 6 5 10 12 10 9 0 9 -3 0 -12z m1412 -9 c-3 -5 4 -9 15 -9 11 0 23
-4 26 -10 3 -5 19 -10 36 -10 16 0 29 -5 29 -11 0 -6 -6 -9 -12 -7 -7 3 -19
-4 -28 -14 -8 -9 -31 -20 -50 -22 -97 -13 -125 -18 -131 -22 -4 -2 -10 2 -12
8 -3 7 -6 4 -6 -8 -1 -24 -63 -84 -69 -66 -2 7 -8 12 -14 12 -6 0 -6 -6 2 -15
16 -19 3 -37 -20 -30 -15 5 -21 -1 -28 -27 -6 -22 -14 -33 -25 -32 -21 2 -21
-3 -1 -23 18 -18 5 -37 -19 -27 -12 4 -15 13 -11 33 11 45 49 116 61 114 6 -1
17 4 23 13 11 12 10 13 -3 9 -20 -8 -34 32 -17 49 10 8 11 6 5 -11 -3 -13 -3
-23 2 -23 14 0 13 43 0 53 -8 6 -5 7 9 4 12 -2 29 0 38 5 12 7 16 5 16 -7 0
-8 -3 -14 -7 -14 -31 5 -45 -34 -17 -45 12 -4 14 -1 9 14 -5 15 -3 18 9 14 11
-4 16 -1 16 10 0 14 12 20 33 17 4 0 7 11 8 27 l0 27 10 -25 c10 -23 11 -24
23 -7 7 9 23 17 36 17 18 0 21 4 18 24 -4 17 -1 23 9 19 7 -3 13 0 13 6 0 6 7
8 15 5 8 -4 12 -10 9 -15z m281 10 c4 -6 19 -7 37 -4 29 7 29 7 11 -14 -9 -12
-23 -21 -30 -21 -15 0 -53 31 -53 42 0 12 28 10 35 -3z m-1215 -9 c0 -5 -4
-10 -10 -10 -5 0 -7 -6 -4 -14 6 -17 -26 -30 -39 -17 -7 7 -2 17 14 30 27 23
39 26 39 11z m870 1 c0 -5 -7 -11 -14 -14 -10 -4 -13 -1 -9 9 6 15 23 19 23 5z
m-190 -11 c9 -6 17 -5 21 2 8 13 29 2 29 -15 0 -8 -3 -7 -9 2 -7 11 -11 9 -21
-10 l-13 -23 -10 24 c-5 15 -11 20 -14 12 -5 -13 -23 -7 -23 9 0 12 21 11 40
-1z m-1000 -10 c0 -5 -7 -10 -16 -10 -8 0 -12 5 -9 10 3 6 10 10 16 10 5 0 9
-4 9 -10z m913 -10 c5 -20 37 -29 37 -10 0 6 5 10 10 10 15 0 12 -26 -5 -40
-12 -10 -15 -10 -15 0 0 10 -3 10 -15 0 -13 -10 -15 -9 -15 8 0 12 -4 24 -10
27 -12 8 -13 25 -1 25 5 0 11 -9 14 -20z m-1238 -9 c18 -2 17 -3 -4 -12 l-25
-10 28 -14 c34 -18 39 -19 30 -4 -4 7 1 9 12 7 14 -3 18 -11 16 -31 -3 -29 -2
-30 22 -21 9 3 13 10 10 15 -3 5 4 9 15 9 24 0 28 -18 7 -26 -8 -3 -17 -12
-20 -19 -4 -11 1 -11 25 -3 17 6 33 8 36 4 3 -3 -7 -10 -23 -16 -16 -6 -38
-15 -49 -20 -30 -14 29 -2 83 17 24 8 46 12 49 9 3 -3 -5 -10 -18 -14 l-24 -9
23 -7 c12 -4 22 -12 22 -17 0 -5 4 -9 9 -9 14 0 20 37 8 49 -8 8 -5 11 10 11
11 0 21 -6 20 -12 -1 -33 4 -49 14 -43 6 4 8 13 5 21 -3 8 -2 14 3 14 18 0 18
-38 0 -54 -11 -9 -19 -22 -19 -30 0 -8 -6 -16 -14 -19 -7 -3 -13 0 -13 6 1 41
-2 43 -55 41 -29 -1 -84 -14 -123 -27 -38 -14 -79 -27 -90 -30 -15 -4 -14 -5
7 -6 15 0 30 -5 33 -11 9 -15 22 -12 43 10 20 22 90 41 78 22 -4 -7 -2 -12 3
-12 21 0 11 -19 -11 -23 -22 -4 -22 -4 -2 -6 12 0 27 6 34 14 7 8 23 15 36 15
17 0 22 4 18 15 -4 9 0 15 10 15 17 0 11 -29 -8 -42 -7 -5 -3 -8 8 -8 19 0 19
-1 2 -13 -16 -12 -17 -16 -5 -35 15 -24 30 -29 27 -9 -2 7 9 12 27 13 44 1 51
-7 24 -28 l-24 -19 38 3 c25 3 37 0 37 -9 0 -7 8 -13 18 -13 14 0 15 -2 2 -10
-9 -6 -17 -5 -22 3 -4 6 -10 8 -14 5 -13 -13 21 -35 41 -27 49 19 65 -4 17
-24 -16 -7 -27 -17 -25 -22 2 -6 -13 -17 -32 -24 -37 -13 -49 -33 -15 -24 15
4 19 2 14 -10 -5 -13 4 -14 58 -10 35 3 71 12 81 21 9 8 17 10 17 4 0 -17 -61
-57 -69 -44 -4 7 -16 6 -36 -3 l-30 -14 35 6 c31 6 33 4 22 -9 -10 -13 -9 -18
3 -28 9 -7 13 -21 10 -31 -8 -25 24 -41 51 -26 12 7 36 29 53 50 18 20 37 37
42 37 14 0 10 -26 -6 -40 -8 -7 -12 -17 -9 -22 3 -5 14 -2 24 7 18 16 18 16
13 -4 -9 -34 31 -26 68 14 34 36 56 40 24 4 -17 -17 -17 -22 -5 -30 11 -6 20
-4 30 9 8 10 24 18 36 18 19 0 19 -2 6 -29 -18 -35 -12 -43 15 -18 21 20 52
13 38 -9 -5 -9 -4 -11 3 -6 7 4 12 1 12 -8 0 -22 47 -21 55 2 3 9 19 33 36 52
l30 35 -16 -34 c-10 -20 -14 -43 -10 -58 5 -23 7 -24 19 -8 18 25 50 15 54
-18 3 -28 22 -39 22 -12 0 8 5 15 10 15 6 0 10 7 10 15 0 16 30 49 47 52 5 1
28 4 51 7 53 6 63 12 55 33 -4 11 -3 14 5 9 7 -4 12 -13 12 -20 0 -16 48 -28
56 -15 9 15 24 10 24 -7 0 -14 3 -14 15 -4 12 10 15 10 15 -3 0 -11 6 -14 15
-10 9 3 22 -2 29 -12 12 -17 13 -17 20 0 6 17 8 17 22 -4 9 -13 14 -35 12 -51
-3 -16 0 -32 6 -34 7 -3 5 -8 -4 -15 -11 -8 -16 -7 -19 6 -2 12 -5 13 -11 3
-6 -9 -11 -7 -19 9 -17 31 -34 26 -29 -9 3 -20 0 -30 -9 -30 -7 0 -13 -7 -13
-16 0 -8 -4 -13 -9 -10 -5 3 -11 -1 -15 -9 -7 -20 -42 -19 -50 1 -9 24 -7 44
5 44 6 0 17 7 26 15 14 14 16 14 28 -1 11 -15 12 -15 18 7 3 13 5 24 4 25 -1
1 -38 4 -82 6 l-80 3 0 -32 c-1 -33 14 -48 16 -15 1 30 18 -19 18 -53 -1 -16
-3 -24 -6 -16 -5 11 -7 11 -14 0 -6 -10 -9 -8 -9 8 0 16 -4 21 -15 17 -8 -4
-15 -10 -15 -16 0 -5 5 -6 11 -2 7 4 10 1 7 -6 -2 -8 -10 -16 -17 -18 -10 -3
-12 4 -7 29 3 19 8 46 11 61 2 14 6 32 7 40 2 8 -7 13 -24 14 -16 1 -28 -4
-28 -11 0 -6 -7 -20 -15 -31 -13 -18 -14 -16 -10 19 3 20 1 37 -4 37 -9 0 -20
-45 -22 -89 l-1 -26 -8 25 c-6 22 -8 23 -15 8 -4 -10 -11 -15 -17 -12 -5 3 -2
14 8 25 15 17 15 19 1 19 -8 0 -20 -12 -25 -27 l-10 -28 -1 34 -1 33 -20 -23
c-10 -13 -19 -20 -20 -15 0 18 -29 -29 -30 -49 -1 -19 -1 -19 -11 -2 -10 18
-11 18 -31 0 -20 -18 -20 -17 -14 3 6 19 3 21 -21 16 -15 -3 -34 -12 -42 -19
-11 -12 -16 -12 -23 -1 -8 10 -11 11 -15 0 -4 -9 -9 -8 -21 6 -10 10 -27 24
-39 31 -22 11 -23 10 -23 -34 0 -28 9 -62 22 -88 12 -23 21 -46 19 -52 -1 -5
14 6 33 24 36 35 51 34 19 -1 -15 -16 -15 -21 -3 -28 8 -5 11 -12 8 -16 -8 -7
16 -34 30 -34 23 0 58 -26 54 -40 -3 -8 4 -4 15 9 l20 24 21 -21 c26 -26 42
-28 42 -5 0 14 3 14 20 -5 22 -24 26 -62 8 -80 -6 -6 -9 -15 -5 -18 16 -16 37
70 38 153 0 48 4 97 9 108 5 12 7 -5 3 -45 -2 -36 0 -90 5 -120 5 -31 10 -43
11 -27 0 15 6 27 12 27 7 0 8 -11 4 -30 -6 -26 -4 -29 14 -25 12 2 21 -1 21
-8 1 -7 7 -1 15 13 8 14 14 20 15 13 0 -6 8 -10 18 -8 27 4 52 -14 52 -37 0
-21 0 -21 -15 -2 -13 18 -14 17 -15 -18 0 -21 -4 -38 -10 -38 -5 0 -10 10 -10
22 0 26 -16 13 -22 -17 -2 -11 -10 -19 -16 -17 -7 1 -17 -9 -22 -24 -6 -15
-14 -22 -22 -18 -8 5 -9 -3 -5 -27 3 -19 8 -50 12 -69 3 -19 -4 -3 -17 35 -12
39 -23 72 -25 75 -3 3 -13 -6 -23 -20 l-20 -25 0 23 c0 12 -5 21 -12 20 -12
-3 -14 3 -17 38 -1 13 -8 15 -32 10 -26 -5 -29 -3 -25 12 9 26 -36 23 -66 -5
-14 -13 -28 -23 -34 -23 -5 0 -4 4 1 8 16 10 55 63 55 73 0 5 -7 6 -15 3 -8
-4 -15 -1 -15 6 0 8 -8 7 -26 -5 -25 -16 -26 -16 -19 4 3 11 2 28 -3 36 -8 15
-10 15 -21 1 -8 -9 -22 -16 -33 -16 -16 0 -19 5 -15 21 5 19 4 20 -12 5 -9 -9
-32 -19 -49 -22 l-32 -6 16 31 c8 17 19 33 25 36 5 4 9 11 9 16 0 6 -5 7 -12
3 -6 -4 -21 -8 -32 -10 -12 -1 -25 -3 -31 -5 -19 -5 -85 13 -85 23 0 6 8 7 17
4 9 -4 20 -1 25 6 14 23 9 27 -24 17 -17 -5 -34 -6 -37 -4 -2 3 0 5 6 5 6 0
32 20 58 45 27 25 62 47 80 51 27 5 31 10 32 40 1 19 -3 31 -8 28 -5 -3 -6 10
-3 28 l5 33 -15 -25 c-8 -14 -15 -35 -16 -47 0 -12 -4 -25 -10 -28 -5 -3 -10
-2 -10 4 0 5 -3 18 -6 28 -5 15 -4 16 6 3 9 -13 11 -12 8 3 -5 32 -23 23 -26
-13 -1 -19 -7 -45 -13 -56 -9 -18 -62 -47 -121 -67 -31 -11 -19 7 19 28 39 21
59 50 26 38 -10 -3 -26 -13 -35 -21 -13 -10 -18 -11 -18 -3 0 7 -4 10 -9 6 -6
-3 -6 6 -1 25 5 16 6 30 3 30 -3 0 0 7 7 15 17 21 7 29 -19 16 -24 -13 -75
-98 -116 -193 -16 -37 -31 -66 -33 -64 -6 6 48 127 94 212 24 44 41 84 38 87
-9 8 -34 -24 -79 -101 -43 -73 -55 -82 -21 -14 41 79 50 102 43 108 -3 4 1 20
9 36 19 36 12 45 -21 30 -23 -11 -24 -10 -15 14 14 36 12 52 -4 31 -9 -11 -15
-14 -18 -7 -2 6 -25 -7 -51 -30 -26 -23 -47 -39 -47 -36 0 8 38 54 71 86 20
20 23 28 14 37 -13 12 -22 2 -80 -83 -33 -48 -32 -34 1 26 36 67 27 85 -19 39
-21 -21 -37 -35 -37 -32 0 3 -43 -32 -95 -76 -52 -45 -95 -80 -95 -77 0 5 204
184 255 224 32 25 28 39 -7 22 -22 -11 -22 -11 2 9 l25 21 -27 0 c-37 0 -59
10 -51 23 11 19 -23 0 -164 -89 -430 -271 -618 -412 -883 -663 -41 -39 -77
-71 -80 -71 -8 0 208 203 315 296 151 131 433 329 666 468 78 46 96 61 92 76
-4 16 -9 18 -25 9 -34 -18 -30 -3 9 35 l38 37 -45 -16 c-25 -8 -76 -31 -115
-49 -153 -75 -328 -156 -331 -153 -2 2 91 49 206 105 116 56 210 107 210 113
0 6 -8 8 -20 4 -27 -9 -25 9 3 29 12 8 -52 -20 -143 -64 -90 -44 -169 -80
-175 -80 -5 1 58 34 140 75 83 41 161 83 174 93 23 19 23 19 -46 1 -129 -32
-299 -96 -616 -229 -55 -23 -101 -40 -103 -38 -5 6 396 172 529 219 111 40
207 79 207 84 0 18 -18 36 -46 45 -27 9 -45 8 -90 -5 -63 -18 -87 -14 -27 5
21 7 52 20 68 30 17 10 36 15 43 13 6 -3 12 0 12 5 0 6 21 13 48 16 26 3 54 7
62 9 8 2 30 7 48 11 46 11 40 25 -7 16 -22 -4 -44 -3 -49 2 -12 12 -122 -16
-133 -33 -4 -7 -14 -9 -23 -6 -27 10 -288 -60 -515 -137 -41 -14 -76 -24 -79
-22 -6 7 323 112 469 151 132 34 195 60 131 52 -22 -2 -29 0 -22 7 15 15 12
23 -11 29 -12 3 -19 9 -16 14 5 8 -61 4 -218 -12 -38 -4 -68 -5 -65 -2 3 3 55
11 115 17 143 15 235 44 235 74 0 13 -28 5 -45 -14 -10 -11 -23 -20 -28 -20
-6 0 -7 3 -4 7 4 3 -4 12 -18 19 -20 10 -40 10 -107 -2 -168 -29 -262 -51
-441 -105 -38 -12 -70 -19 -73 -17 -7 8 234 77 381 108 77 17 147 33 155 37 8
3 28 7 43 9 16 2 35 7 42 12 13 6 132 9 180 3z m55 -1 c-20 -13 -33 -13 -25 0
3 6 14 10 23 10 15 0 15 -2 2 -10z m1257 -12 c-3 -8 -6 -5 -6 6 -1 11 2 17 5
13 3 -3 4 -12 1 -19z m-967 -13 c0 -9 9 -15 21 -15 17 0 19 -3 10 -13 -6 -8
-23 -12 -41 -9 -28 4 -29 5 -13 18 17 13 17 13 0 14 -10 0 -15 5 -12 10 10 15
35 12 35 -5z m1560 11 c0 -3 -4 -8 -10 -11 -5 -3 -10 -1 -10 4 0 6 5 11 10 11
6 0 10 -2 10 -4z m-1730 -31 c-7 -8 -17 -15 -22 -15 -6 0 -5 7 2 15 7 8 17 15
22 15 6 0 5 -7 -2 -15z m2313 -2 c-7 -2 -21 -2 -30 0 -10 3 -4 5 12 5 17 0 24
-2 18 -5z m195 -15 c61 -6 112 -15 112 -20 0 -4 7 -8 17 -8 9 0 14 -2 12 -5
-3 -2 -48 2 -100 10 -52 7 -120 17 -152 20 -35 4 -55 10 -51 17 3 5 16 7 28 4
11 -3 72 -11 134 -18z m-2428 -13 c-7 -9 -15 -13 -19 -10 -3 3 1 10 9 15 21
14 24 12 10 -5z m-40 -4 c0 -12 -20 -25 -27 -18 -7 7 6 27 18 27 5 0 9 -4 9
-9z m2697 -7 c-3 -3 -12 -4 -19 -1 -8 3 -5 6 6 6 11 1 17 -2 13 -5z m-1162
-22 c-3 -3 -11 0 -18 7 -9 10 -8 11 6 5 10 -3 15 -9 12 -12z m652 -2 c-6 -24
16 -44 43 -37 11 3 18 1 14 -4 -6 -10 -35 -12 -58 -3 -18 7 -22 64 -5 64 6 0
9 -9 6 -20z m-2100 4 c-3 -3 -12 -4 -19 -1 -8 3 -5 6 6 6 11 1 17 -2 13 -5z
m63 1 c0 -2 -10 -10 -22 -16 -21 -11 -22 -11 -9 4 13 16 31 23 31 12z m640 -5
c8 -5 11 -10 5 -10 -5 0 -17 5 -25 10 -8 5 -10 10 -5 10 6 0 17 -5 25 -10z
m1320 0 c0 -5 -5 -10 -11 -10 -5 0 -7 5 -4 10 3 6 8 10 11 10 2 0 4 -4 4 -10z
m-601 -64 c-9 -8 -10 -8 -5 1 5 9 -1 11 -23 7 -24 -5 -29 -3 -27 11 1 10 11
24 21 31 16 12 20 10 32 -13 10 -20 11 -29 2 -37z m558 58 c-3 -3 -12 -4 -19
-1 -8 3 -5 6 6 6 11 1 17 -2 13 -5z m166 -1 c-7 -2 -19 -2 -25 0 -7 3 -2 5 12
5 14 0 19 -2 13 -5z m112 -11 c-2 -3 0 -11 7 -19 8 -10 8 -17 0 -25 -8 -8 -13
-4 -17 14 -5 19 -12 24 -26 21 -21 -6 -27 13 -6 20 15 5 50 -4 42 -11z m100 1
c41 -19 46 -43 10 -43 -17 0 -23 4 -19 14 3 8 -5 21 -18 30 -29 21 -18 20 27
-1z m602 11 c-3 -3 -12 -4 -19 -1 -8 3 -5 6 6 6 11 1 17 -2 13 -5z m-3717 -14
c0 -5 -11 -10 -26 -10 -14 0 -73 -9 -132 -21 -344 -66 -348 -67 -447 -113
-105 -49 -150 -61 -75 -20 25 13 52 28 60 33 33 20 214 74 258 77 26 2 112 17
192 33 172 34 170 34 170 21z m1060 0 c0 -5 -7 -10 -15 -10 -8 0 -15 -4 -15
-10 0 -5 13 -10 30 -10 22 0 28 -4 24 -15 -7 -17 -41 -20 -46 -4 -2 7 -9 5
-17 -5 -11 -14 -11 -16 3 -16 10 0 15 -4 12 -8 -6 -10 -96 -13 -96 -4 0 4 15
14 33 22 17 8 32 22 32 30 0 8 11 20 25 27 30 15 30 15 30 3z m1380 -11 c12
-7 11 -8 -5 -9 -31 0 -65 11 -65 21 0 10 45 2 70 -12z m-750 -29 c12 -8 11
-10 -7 -10 -13 0 -23 5 -23 10 0 13 11 13 30 0z m407 -3 c4 -8 16 -18 26 -24
16 -9 17 -11 3 -22 -13 -11 -16 -11 -16 -1 0 9 -3 10 -13 1 -11 -8 -18 -6 -32
9 -10 11 -15 23 -12 27 4 3 7 1 7 -5 0 -7 7 -12 15 -12 18 0 19 12 3 28 -9 9
-9 12 0 12 6 0 15 -6 19 -13z m-957 -1 c0 -2 -7 -7 -16 -10 -8 -3 -12 -2 -9 4
6 10 25 14 25 6z m1620 -28 c0 -5 -7 -3 -15 6 -8 8 -15 18 -15 22 0 3 7 1 15
-6 8 -7 15 -17 15 -22z m-2280 18 c0 -2 -9 -6 -20 -9 -11 -3 -18 -1 -14 4 5 9
34 13 34 5z m-1030 -11 c0 -6 -56 -35 -67 -35 -4 1 8 9 27 20 39 22 40 22 40
15z m2360 1 c0 -3 -4 -8 -10 -11 -5 -3 -10 -1 -10 4 0 6 5 11 10 11 6 0 10 -2
10 -4z m1165 -6 c3 -5 -1 -10 -10 -10 -9 0 -13 5 -10 10 3 6 8 10 10 10 2 0 7
-4 10 -10z m-1865 -25 c-13 -16 -89 -40 -98 -31 -8 8 -3 11 48 28 60 20 65 21
50 3z m722 -29 c-3 -24 -9 -36 -19 -36 -10 0 -13 5 -8 18 4 9 8 26 10 37 3 26
4 27 13 21 4 -3 6 -21 4 -40z m1116 26 c2 -7 -7 -12 -22 -12 -27 0 -35 15 -13
23 17 7 30 3 35 -11z m-2018 4 c0 -3 -4 -8 -10 -11 -5 -3 -10 -1 -10 4 0 6 5
11 10 11 6 0 10 -2 10 -4z m-1560 -10 c0 -8 -71 -48 -76 -43 -3 3 11 15 33 26
42 22 43 23 43 17z m2032 -18 c-7 -7 -12 -8 -12 -2 0 6 3 14 7 17 3 4 9 5 12
2 2 -3 -1 -11 -7 -17z m476 -5 c-2 -14 -8 -28 -14 -30 -7 -2 -9 8 -6 27 5 37
25 40 20 3z m1205 -9 c60 -20 106 -38 104 -41 -3 -2 -40 7 -83 21 -44 14 -91
28 -107 32 -25 6 -48 24 -30 24 4 0 57 -16 116 -36z m-231 9 c32 -3 58 -10 58
-14 0 -5 7 -9 15 -9 8 0 34 -9 58 -19 23 -11 87 -36 142 -57 94 -34 137 -53
124 -54 -3 0 -54 18 -112 40 -59 23 -138 48 -175 57 -37 9 -76 19 -87 24 -11
4 -38 13 -60 20 -22 6 -44 16 -50 22 -7 7 -4 8 9 3 11 -4 46 -9 78 -13z
m-1433 -25 c-9 -16 -14 -19 -17 -9 -2 7 2 17 9 22 20 13 21 11 8 -13z m546 12
c-3 -5 -16 -10 -28 -9 -20 1 -20 2 3 9 14 4 26 8 28 9 2 1 0 -3 -3 -9z m-2685
-14 c0 -2 -17 -14 -37 -25 l-38 -22 28 26 c25 22 47 32 47 21z m3480 -6 c0 -5
-7 -10 -16 -10 -8 0 -12 5 -9 10 3 6 10 10 16 10 5 0 9 -4 9 -10z m-2560 -15
c-46 -18 -64 -17 -25 0 17 8 37 14 45 14 8 0 -1 -7 -20 -14z m1100 5 c0 -5 -7
-10 -16 -10 -8 0 -12 5 -9 10 3 6 10 10 16 10 5 0 9 -4 9 -10z m90 -13 c0 -7
-12 -13 -26 -13 -24 -2 -24 -1 -8 17 17 19 34 17 34 -4z m-60 3 c0 -5 -5 -10
-11 -10 -5 0 -7 5 -4 10 3 6 8 10 11 10 2 0 4 -4 4 -10z m136 -13 c8 3 14 0
14 -7 0 -6 -8 -10 -17 -8 -10 1 -29 -5 -43 -15 -25 -18 -37 -10 -26 19 8 21
50 35 54 18 2 -7 10 -10 18 -7z m259 -54 c-2 -7 -12 -13 -20 -13 -12 0 -15 5
-9 23 4 12 8 31 10 42 4 32 6 32 15 -5 4 -19 6 -41 4 -47z m58 47 c-3 -10 -12
-25 -21 -32 -13 -11 -15 -10 -9 4 4 12 2 15 -9 11 -24 -9 -16 23 9 34 28 13
37 8 30 -17z m1022 20 c3 -5 -3 -10 -14 -10 -12 0 -21 5 -21 10 0 6 6 10 14
10 8 0 18 -4 21 -10z m455 -22 c10 -6 7 -7 -10 -2 -14 3 -32 11 -40 16 -10 6
-7 7 10 2 14 -3 32 -11 40 -16z m-3121 8 c-3 -3 -58 -24 -124 -47 -66 -23
-184 -72 -262 -109 -79 -38 -143 -66 -143 -64 0 3 57 33 127 67 163 79 429
180 402 153z m736 -6 c3 -5 1 -10 -4 -10 -6 0 -11 5 -11 10 0 6 2 10 4 10 3 0
8 -4 11 -10z m1057 -10 c12 -11 17 -20 11 -20 -5 0 -18 9 -28 20 -10 11 -15
20 -11 20 4 0 16 -9 28 -20z m28 10 c0 -5 -2 -10 -4 -10 -3 0 -8 5 -11 10 -3
6 -1 10 4 10 6 0 11 -4 11 -10z m965 -10 c11 -5 85 -34 165 -65 167 -66 393
-172 571 -270 68 -38 151 -82 184 -100 72 -38 175 -104 175 -111 0 -6 -13 1
-50 26 -40 28 -364 205 -500 275 -147 74 -409 185 -520 219 -67 20 -81 22 -91
10 -6 -8 -26 -14 -43 -13 -17 0 -24 3 -16 6 8 2 25 10 38 16 22 10 22 12 5 19
-10 4 0 5 22 2 22 -3 49 -9 60 -14z m-2075 6 c0 -2 -9 -6 -20 -9 -11 -3 -20
-1 -20 4 0 5 9 9 20 9 11 0 20 -2 20 -4z m63 -33 c-16 -13 -73 -18 -73 -8 0 9
43 23 68 21 20 -1 21 -2 5 -13z m77 13 c0 -2 -7 -7 -16 -10 -8 -3 -12 -2 -9 4
6 10 25 14 25 6z m2398 -23 c24 -8 41 -17 39 -19 -5 -6 -117 36 -117 43 0 3 8
2 18 -2 9 -4 36 -14 60 -22z m-2289 -27 c1 -4 -5 -6 -13 -3 -8 3 -22 -3 -32
-14 -16 -18 -16 -19 3 -19 11 0 28 9 38 20 19 21 40 26 49 12 3 -5 -7 -15 -22
-23 -86 -44 -182 -114 -127 -93 8 4 15 2 15 -4 0 -17 -24 -20 -39 -5 -12 12
-9 19 20 49 27 28 29 34 15 34 -11 0 -24 -7 -31 -16 -11 -15 -12 -15 -10 2 2
29 32 81 51 88 9 4 25 4 35 1 9 -3 21 0 25 6 5 9 10 7 15 -7 4 -10 8 -23 8
-28z m201 40 c0 -2 -8 -10 -17 -17 -16 -13 -17 -12 -4 4 13 16 21 21 21 13z
m180 -11 c-7 -9 -15 -13 -17 -11 -7 7 7 26 19 26 6 0 6 -6 -2 -15z m157 9 c-3
-3 -12 -4 -19 -1 -8 3 -5 6 6 6 11 1 17 -2 13 -5z m1067 -29 c40 -19 80 -35
89 -35 9 0 21 -9 27 -20 15 -28 0 -26 -58 9 -27 16 -66 34 -88 42 -21 7 -46
19 -54 26 -26 24 8 15 84 -22z m-2965 21 c-8 -8 -142 -56 -146 -52 -2 2 27 15
64 29 65 25 91 32 82 23z m1423 -18 c-7 -7 -12 -8 -12 -2 0 6 3 14 7 17 3 4 9
5 12 2 2 -3 -1 -11 -7 -17z m191 7 c-3 -9 -8 -14 -10 -11 -3 3 -2 9 2 15 9 16
15 13 8 -4z m592 -14 c5 -13 4 -14 -6 -3 -19 18 -32 15 -26 -8 6 -22 -8 -28
-16 -7 -3 6 -6 3 -6 -8 -1 -18 -2 -18 -17 -3 -13 12 -13 19 -4 35 15 23 65 20
75 -6z m-965 9 c0 -10 -52 -40 -70 -40 -22 0 -8 21 23 34 40 18 47 19 47 6z
m255 0 c-3 -5 -12 -10 -18 -10 -7 0 -6 4 3 10 19 12 23 12 15 0z m1593 -10
c18 -11 39 -20 48 -20 8 0 173 -81 367 -181 194 -99 343 -178 332 -175 -15 5
-12 0 10 -19 24 -21 20 -20 -25 7 -130 80 -245 141 -390 208 -231 107 -331
151 -338 147 -4 -2 -20 9 -37 25 -35 33 -16 38 33 8z m-372 -18 c-4 -3 -14 2
-24 12 -16 18 -16 18 6 6 13 -6 21 -14 18 -18z m1054 -9 l25 -14 -25 7 c-14 4
-36 13 -50 21 l-25 14 25 -7 c14 -4 36 -13 50 -21z m-2620 7 c0 -5 -5 -10 -11
-10 -5 0 -7 5 -4 10 3 6 8 10 11 10 2 0 4 -4 4 -10z m1911 -61 c16 -11 27 -25
24 -29 -3 -5 22 -26 55 -47 118 -73 285 -184 300 -200 21 -22 8 -14 -120 73
-143 96 -273 174 -290 174 -8 0 -24 7 -34 15 -19 14 -19 15 -2 15 16 0 15 3
-7 20 -14 11 -30 20 -36 20 -6 0 -11 4 -11 10 0 11 81 -23 121 -51z m519 46
c14 -8 21 -14 15 -14 -5 0 -21 6 -35 14 -14 8 -20 14 -15 14 6 0 21 -6 35 -14z
m-2130 -3 c0 -8 -14 -16 -62 -40 -5 -2 -8 3 -8 11 0 8 10 19 23 25 27 13 47
15 47 4z m660 -13 c0 -6 -4 -7 -10 -4 -5 3 -10 11 -10 16 0 6 5 7 10 4 6 -3
10 -11 10 -16z m675 -9 c16 -16 26 -30 22 -30 -3 0 -20 14 -37 30 -17 17 -27
30 -22 30 4 0 21 -13 37 -30z m-2976 16 c-8 -8 -192 -76 -196 -73 -2 2 38 20
89 40 86 33 118 43 107 33z m2380 -21 c17 -19 19 -25 8 -25 -17 0 -47 26 -47
41 0 15 14 10 39 -16z m1646 15 c13 -6 15 -9 5 -9 -8 0 -22 4 -30 9 -18 12 -2
12 25 0z m-1605 -15 c7 -9 8 -15 2 -15 -5 0 -12 7 -16 15 -3 8 -4 15 -2 15 2
0 9 -7 16 -15z m644 -9 c21 -9 43 -21 50 -27 6 -5 22 -19 36 -30 14 -12 52
-40 85 -62 80 -54 150 -107 141 -107 -10 0 -284 182 -331 220 -22 18 -35 31
-30 28 6 -2 27 -12 49 -22z m826 -16 c33 -17 60 -33 60 -35 0 -5 -119 52 -129
61 -13 12 16 1 69 -26z m185 12 c-3 -3 -11 0 -18 7 -9 10 -8 11 6 5 10 -3 15
-9 12 -12z m75 -24 c10 -6 7 -7 -10 -2 -14 3 -32 11 -40 16 -10 6 -7 7 10 2
14 -3 32 -11 40 -16z m-1612 -19 c12 -19 12 -20 -13 -3 -14 9 -25 20 -25 25 0
14 25 0 38 -22z m1677 -9 c3 -5 -4 -6 -15 -3 -11 3 -22 9 -25 13 -3 5 4 6 15
3 11 -3 22 -9 25 -13z m-3635 1 c-27 -16 -272 -112 -276 -108 -2 2 58 29 134
59 128 53 177 69 142 49z m2790 -27 c0 -2 -13 2 -30 11 -16 9 -30 18 -30 21 0
2 14 -2 30 -11 17 -9 30 -18 30 -21z m-410 -4 c0 -5 -4 -10 -10 -10 -5 0 -10
5 -10 10 0 6 5 10 10 10 6 0 10 -4 10 -10z m1115 -38 c-4 -5 -75 37 -75 44 0
3 18 -6 39 -18 22 -12 38 -24 36 -26z m-4045 33 c0 -2 -10 -9 -22 -15 -22 -11
-22 -10 -4 4 21 17 26 19 26 11z m1510 1 c0 -3 -4 -8 -10 -11 -5 -3 -10 -1
-10 4 0 6 5 11 10 11 6 0 10 -2 10 -4z m1880 -22 c0 -2 -9 0 -20 6 -11 6 -20
13 -20 16 0 2 9 0 20 -6 11 -6 20 -13 20 -16z m-331 -24 c79 -61 98 -86 24
-30 -46 33 -83 63 -83 66 0 7 19 -5 59 -36z m1246 22 c-3 -3 -11 0 -18 7 -9
10 -8 11 6 5 10 -3 15 -9 12 -12z m-1943 -46 c4 3 27 -10 51 -30 35 -28 44
-42 39 -58 -5 -19 -7 -17 -23 14 -17 32 -59 59 -59 37 0 -5 6 -9 13 -9 8 0 22
-17 33 -39 14 -30 24 -38 46 -39 31 -1 35 7 16 27 -11 11 -8 11 12 0 62 -34
80 -9 28 40 -24 22 -35 27 -45 19 -10 -8 -13 -7 -13 2 0 22 -31 49 -48 44 -13
-4 -13 -3 1 6 15 10 23 8 40 -8 31 -28 67 -45 67 -32 0 5 -4 10 -9 10 -5 0
-12 7 -15 16 -3 8 -2 13 3 10 14 -9 81 -100 82 -111 0 -5 5 -16 11 -22 7 -9 7
-13 0 -13 -6 0 -14 -9 -17 -20 -9 -28 -25 -25 -25 5 0 14 -5 25 -11 25 -7 0
-9 -12 -7 -31 4 -27 3 -30 -18 -25 -13 4 -25 1 -28 -7 -3 -8 -11 -4 -23 12
-10 13 -28 34 -40 47 -12 13 -27 32 -32 41 -9 16 -10 14 -11 -9 0 -16 -4 -28
-10 -28 -5 0 -10 -12 -11 -27 -1 -28 -1 -28 -10 4 -12 43 -29 51 -30 16 l-1
-28 -7 30 c-4 17 -3 31 1 33 4 2 5 22 1 45 -6 40 -5 41 12 27 17 -14 18 -13
13 15 -3 17 -8 39 -12 50 -4 11 1 5 11 -13 11 -18 22 -30 25 -26z m-2412 40
c0 -2 -29 -22 -65 -45 -36 -22 -65 -38 -65 -35 0 4 121 84 128 84 1 0 2 -2 2
-4z m3499 -22 c14 -12 -19 -1 -35 12 -18 14 -18 14 6 3 14 -6 27 -13 29 -15z
m-909 -14 c0 -15 -5 -12 -26 11 -19 22 -19 22 4 10 12 -6 22 -16 22 -21z
m1583 -2 c19 -13 40 -31 46 -41 11 -17 11 -17 -16 0 -78 50 -95 63 -80 63 9 0
31 -10 50 -22z m-4078 -23 c-38 -19 -74 -34 -80 -33 -5 0 22 15 60 33 39 19
75 34 80 34 6 0 -21 -16 -60 -34z m430 15 c-3 -5 -12 -10 -18 -10 -7 0 -6 4 3
10 19 12 23 12 15 0z m-255 -20 c-8 -5 -19 -10 -25 -10 -5 0 -3 5 5 10 8 5 20
10 25 10 6 0 3 -5 -5 -10z m220 5 c0 -2 -18 -14 -40 -25 -22 -11 -40 -18 -40
-15 0 2 17 13 38 24 42 23 42 23 42 16z m2530 -30 c14 -19 14 -19 -2 -6 -10 7
-18 18 -18 24 0 6 1 8 3 6 1 -2 9 -13 17 -24z m-2824 -14 c-21 -17 -51 -47
-67 -68 -40 -50 -44 -53 -29 -23 7 14 24 37 38 53 29 31 21 34 -33 11 -20 -8
-39 -13 -41 -11 -3 2 17 12 43 21 27 10 62 24 78 32 47 22 51 16 11 -15z
m-336 15 c0 -2 -12 -11 -27 -20 l-28 -17 24 20 c23 21 31 25 31 17z m140 -10
c0 -3 -26 -17 -57 -32 -32 -14 -84 -40 -115 -55 -32 -16 -58 -27 -58 -24 0 5
217 115 226 115 2 0 4 -2 4 -4z m2857 -28 l12 -33 -19 24 c-21 24 -26 41 -12
41 4 0 13 -15 19 -32z m1404 15 c13 -16 12 -17 -3 -4 -17 13 -22 21 -14 21 2
0 10 -8 17 -17z m-1016 -13 c10 -11 16 -20 13 -20 -3 0 -13 9 -23 20 -10 11
-16 20 -13 20 3 0 13 -9 23 -20z m-2865 5 c0 -2 -10 -9 -22 -15 -22 -11 -22
-10 -4 4 21 17 26 19 26 11z m1657 -38 c2 -15 -1 -27 -7 -27 -5 0 -10 6 -10
14 0 8 -3 22 -7 32 -4 11 -2 15 7 12 7 -2 15 -16 17 -31z m1503 -43 c0 -8 -33
13 -65 41 -25 22 -23 22 18 -5 26 -17 47 -33 47 -36z m-3785 36 c-10 -11 -22
-20 -28 -20 -5 0 1 9 14 20 31 25 37 25 14 0z m294 16 c-10 -8 -223 -95 -226
-92 -4 4 207 95 221 96 5 0 7 -2 5 -4z m281 -1 c0 -2 -10 -9 -22 -15 -22 -11
-22 -10 -4 4 21 17 26 19 26 11z m724 -48 c-22 -23 -53 -59 -68 -80 -15 -21
-31 -36 -34 -33 -3 4 6 19 19 34 14 15 38 45 54 67 31 42 57 66 64 59 3 -2
-13 -23 -35 -47z m-774 19 c0 -2 -18 -15 -40 -30 -22 -14 -40 -24 -40 -22 0 5
71 56 77 56 2 0 3 -2 3 -4z m3480 -62 c0 -3 -20 9 -45 26 -25 17 -45 33 -45
36 0 3 20 -9 45 -26 25 -17 45 -33 45 -36z m1 29 c13 -16 12 -17 -3 -4 -17 13
-22 21 -14 21 2 0 10 -8 17 -17z m-171 -19 c0 -2 -9 0 -20 6 -11 6 -20 13 -20
16 0 2 9 0 20 -6 11 -6 20 -13 20 -16z m550 0 c0 -2 -9 0 -20 6 -11 6 -20 13
-20 16 0 2 9 0 20 -6 11 -6 20 -13 20 -16z m-4470 12 c0 -2 -8 -10 -17 -17
-16 -13 -17 -12 -4 4 13 16 21 21 21 13z m1125 -68 c-38 -40 -71 -75 -72 -77
-2 -2 -3 0 -3 5 0 10 130 144 139 144 2 0 -27 -33 -64 -72z m1342 50 c-3 -8
-6 -5 -6 6 -1 11 2 17 5 13 3 -3 4 -12 1 -19z m1664 -5 c13 -16 12 -17 -3 -4
-17 13 -22 21 -14 21 2 0 10 -8 17 -17z m-141 -40 c0 -8 -38 17 -51 33 -9 11
-2 9 19 -6 17 -13 32 -25 32 -27z m545 12 l20 -16 -20 10 c-11 5 -29 17 -40
26 l-20 16 20 -10 c11 -5 29 -17 40 -26z m-4049 7 c-2 -4 -26 -23 -53 -41 -55
-39 -47 -27 12 18 42 32 49 36 41 23z m1891 -44 c-3 -7 -5 -2 -5 12 0 14 2 19
5 13 2 -7 2 -19 0 -25z m73 7 c0 14 28 -29 40 -62 l10 -28 -19 22 c-10 12 -21
19 -25 16 -3 -4 -6 1 -6 10 0 10 -4 17 -10 17 -5 0 -10 10 -10 23 0 18 2 19
10 7 5 -8 10 -11 10 -5z m2081 -2 c13 -16 12 -17 -3 -4 -17 13 -22 21 -14 21
2 0 10 -8 17 -17z m69 -9 c0 -2 -9 0 -20 6 -11 6 -20 13 -20 16 0 2 9 0 20 -6
11 -6 20 -13 20 -16z m-2100 0 c0 -8 -4 -12 -10 -9 -5 3 -10 10 -10 16 0 5 5
9 10 9 6 0 10 -7 10 -16z m-88 -29 l5 20 -1 -20 c-1 -29 -21 -25 -23 5 l-2 25
8 -25 c7 -23 8 -23 13 -5z m-2032 1 c0 -2 -21 -20 -47 -41 l-48 -37 45 41 c45
41 50 45 50 37z m3883 -23 c5 -7 14 -10 20 -7 7 4 9 4 5 0 -4 -5 26 -34 65
-66 40 -32 86 -73 102 -91 l30 -33 -32 24 c-17 14 -62 52 -100 85 -38 33 -84
72 -103 87 -21 17 -27 25 -15 21 11 -4 24 -13 28 -20z m479 -40 c7 -10 -8 -2
-34 16 -27 17 -48 34 -48 36 0 8 68 -36 82 -52z m-3742 -18 c-24 -25 -46 -45
-49 -45 -3 0 15 20 39 45 24 25 46 45 49 45 3 0 -15 -20 -39 -45z m1920 19 c0
-8 -4 -12 -10 -9 -5 3 -10 13 -10 21 0 8 5 12 10 9 6 -3 10 -13 10 -21z m1710
16 c0 -5 -2 -10 -4 -10 -3 0 -8 5 -11 10 -3 6 -1 10 4 10 6 0 11 -4 11 -10z
m-4350 -33 c0 -2 -15 -16 -32 -33 l-33 -29 29 33 c28 30 36 37 36 29z m4531
-34 c13 -16 12 -17 -3 -4 -17 13 -22 21 -14 21 2 0 10 -8 17 -17z m-2206 -68
c7 -48 6 -49 -10 -30 -16 20 -16 19 -12 -7 2 -16 0 -28 -4 -28 -5 0 -9 11 -9
25 0 15 -7 40 -15 58 l-16 32 19 -22 c24 -27 34 -20 21 14 -13 34 -11 40 5 23
8 -8 18 -37 21 -65z m2246 38 c13 -16 12 -17 -3 -4 -17 13 -22 21 -14 21 2 0
10 -8 17 -17z m-4641 4 c0 -1 -24 -25 -52 -52 l-53 -50 50 53 c46 48 55 57 55
49z m2291 -52 c8 -28 8 -29 -6 -11 -8 11 -15 31 -14 45 1 26 3 23 20 -34z
m-51 -39 c-7 -7 -10 6 -9 40 l1 49 9 -39 c6 -26 6 -43 -1 -50z m-1520 71 c0
-2 -10 -12 -22 -23 l-23 -19 19 23 c18 21 26 27 26 19z m1611 -43 c21 -51 20
-68 -3 -32 -16 25 -32 78 -23 78 3 0 15 -21 26 -46z m-591 16 c0 -5 -5 -10
-11 -10 -5 0 -7 5 -4 10 3 6 8 10 11 10 2 0 4 -4 4 -10z m890 -30 c12 -16 19
-30 16 -30 -2 0 -14 14 -26 30 -12 17 -19 30 -16 30 2 0 14 -13 26 -30z
m-1960 -3 c0 -2 -10 -12 -22 -23 l-23 -19 19 23 c18 21 26 27 26 19z m-780
-30 c0 -1 -30 -32 -67 -67 -50 -48 -56 -52 -22 -15 25 28 52 58 60 67 12 15
29 24 29 15z m2024 -22 c-4 -8 -8 -15 -10 -15 -2 0 -4 7 -4 15 0 8 4 15 10 15
5 0 7 -7 4 -15z m329 -5 c-3 -12 -8 -19 -11 -16 -5 6 5 36 12 36 2 0 2 -9 -1
-20z m-1643 -30 c-17 -22 -34 -40 -37 -40 -2 0 10 18 27 40 17 22 34 40 37 40
2 0 -10 -18 -27 -40z m1400 -10 c0 -5 -4 -10 -10 -10 -5 0 -10 5 -10 10 0 6 5
10 10 10 6 0 10 -4 10 -10z m197 -122 c-2 -24 -4 -7 -4 37 0 44 2 63 4 43 2
-21 2 -57 0 -80z m-1637 78 c0 -2 -8 -10 -17 -17 -16 -13 -17 -12 -4 4 13 16
21 21 21 13z m-116 -163 c-56 -87 -87 -128 -65 -87 17 34 111 174 116 174 2 0
-21 -39 -51 -87z m1773 35 c-2 -13 -4 -5 -4 17 -1 22 1 32 4 23 2 -10 2 -28 0
-40z m-2207 29 c0 -2 -10 -12 -22 -23 l-23 -19 19 23 c18 21 26 27 26 19z
m2107 -29 c-3 -8 -6 -5 -6 6 -1 11 2 17 5 13 3 -3 4 -12 1 -19z m2691 -96 c16
-45 26 -82 22 -82 -7 0 -60 149 -60 166 0 17 11 -7 38 -84z m-4838 75 c0 -2
-10 -12 -22 -23 l-23 -19 19 23 c18 21 26 27 26 19z m2157 -19 c-3 -8 -6 -5
-6 6 -1 11 2 17 5 13 3 -3 4 -12 1 -19z m80 -30 c-3 -8 -6 -5 -6 6 -1 11 2 17
5 13 3 -3 4 -12 1 -19z m-70 -10 c-3 -8 -6 -5 -6 6 -1 11 2 17 5 13 3 -3 4
-12 1 -19z m-2257 -42 c0 -2 -8 -10 -17 -17 -16 -13 -17 -12 -4 4 13 16 21 21
21 13z m57 -208 c-3 -8 -6 -5 -6 6 -1 11 2 17 5 13 3 -3 4 -12 1 -19z m620
-25 c-3 -10 -5 -2 -5 17 0 19 2 27 5 18 2 -10 2 -26 0 -35z m1967 -149 c3 -8
2 -12 -4 -9 -6 3 -10 10 -10 16 0 14 7 11 14 -7z m243 -36 c3 6 9 12 14 12 6
0 8 -4 4 -9 -3 -5 2 -17 11 -25 8 -9 11 -16 5 -16 -5 0 -13 5 -16 10 -3 6 -12
10 -18 10 -7 0 6 -16 28 -35 22 -19 37 -34 33 -35 -4 0 -31 23 -60 51 -29 28
-42 44 -29 37 19 -10 25 -10 28 0z m-62 -18 c3 -5 1 -10 -4 -10 -6 0 -11 5
-11 10 0 6 2 10 4 10 3 0 8 -4 11 -10z m-2178 -22 c-3 -8 -6 -5 -6 6 -1 11 2
17 5 13 3 -3 4 -12 1 -19z m49 -4 c-4 -9 -9 -15 -11 -12 -3 3 -3 13 1 22 4 9
9 15 11 12 3 -3 3 -13 -1 -22z m2174 -6 c0 -6 -6 -5 -15 2 -8 7 -15 14 -15 16
0 2 7 1 15 -2 8 -4 15 -11 15 -16z m-120 2 c0 -5 -2 -10 -4 -10 -3 0 -8 5 -11
10 -3 6 -1 10 4 10 6 0 11 -4 11 -10z m310 -81 c0 -14 -16 -11 -29 5 -6 8 -25
19 -42 26 -16 7 -27 15 -24 18 3 3 -3 14 -12 26 -10 11 10 0 45 -24 34 -23 62
-47 62 -51z m-2401 19 l-2 -43 -6 35 c-7 33 -5 50 5 50 2 0 3 -19 3 -42z
m2131 32 c13 -8 13 -10 -2 -10 -9 0 -20 5 -23 10 -8 13 5 13 25 0z m71 -13
c-13 -13 -26 -3 -16 12 3 6 11 8 17 5 6 -4 6 -10 -1 -17z m63 -13 c9 -8 16
-11 16 -5 0 6 5 11 10 11 6 0 10 -4 10 -10 0 -5 10 -20 21 -31 17 -17 23 -19
30 -8 7 11 9 10 9 -3 0 -10 7 -18 15 -18 8 0 15 -4 15 -10 0 -5 11 -10 25 -10
14 0 25 -4 25 -8 0 -8 124 -61 145 -62 11 -1 95 -111 115 -150 l12 -25 -21 22
c-11 12 -21 26 -21 31 0 15 -43 47 -88 67 -23 10 -40 20 -38 22 2 3 18 -3 36
-12 18 -9 34 -14 37 -11 8 8 -89 66 -110 66 -17 0 -17 -2 4 -20 13 -10 19 -19
14 -20 -6 0 -16 5 -23 12 -19 19 -15 -43 4 -70 18 -26 8 -29 -18 -5 -17 15
-18 15 -18 -1 0 -10 9 -31 21 -47 11 -16 16 -29 11 -29 -6 0 -13 7 -16 16 -4
9 -9 15 -12 12 -10 -11 16 -59 48 -88 27 -24 29 -29 15 -30 -11 0 -21 9 -24
21 -3 11 -11 18 -18 15 -8 -3 -17 12 -25 42 -7 26 -15 58 -19 71 -8 28 -74 84
-71 60 4 -23 1 -39 -7 -39 -5 0 -8 14 -8 30 0 17 3 30 8 30 4 0 7 5 7 12 0 6
-3 9 -6 5 -4 -3 -16 13 -28 36 l-21 42 -79 3 c-86 4 -100 -12 -20 -24 31 -4
41 -9 33 -15 -11 -6 -10 -11 6 -23 11 -9 16 -16 12 -16 -5 0 -23 11 -41 25
-18 14 -42 25 -53 25 -12 0 -23 7 -27 15 -7 19 -37 19 -62 0 -23 -17 -60 -19
-70 -4 -3 6 0 15 7 20 10 7 6 8 -11 4 -19 -4 -34 2 -60 25 -24 22 -26 25 -6
11 16 -12 40 -21 54 -21 25 0 25 0 6 21 -19 22 -19 22 4 8 12 -8 22 -18 22
-22 0 -10 101 -4 118 7 6 4 20 2 31 -4 25 -13 34 -13 26 0 -3 6 -1 10 4 10 6
0 11 -4 11 -10 0 -5 12 -10 28 -10 26 1 26 1 -10 21 -39 20 -52 34 -21 22 13
-5 15 -2 11 15 -7 26 4 28 26 6z m-2907 -36 c-3 -8 -6 -5 -6 6 -1 11 2 17 5
13 3 -3 4 -12 1 -19z m4177 -17 c-2 -3 -12 3 -22 13 -16 17 -16 18 5 5 12 -7
20 -15 17 -18z m-4237 -23 c-3 -7 -5 -2 -5 12 0 14 2 19 5 13 2 -7 2 -19 0
-25z m3153 22 c0 -5 -2 -10 -4 -10 -3 0 -8 5 -11 10 -3 6 -1 10 4 10 6 0 11
-4 11 -10z m-2453 -47 c-3 -10 -5 -2 -5 17 0 19 2 27 5 18 2 -10 2 -26 0 -35z
m296 28 c2 -10 1 -25 -4 -32 -6 -10 -9 -4 -9 19 0 36 5 42 13 13z m1647 -45
c0 -12 -14 5 -31 39 -8 16 -6 15 10 -4 12 -13 21 -28 21 -35z m570 24 c0 -5
-4 -10 -10 -10 -5 0 -10 5 -10 10 0 6 5 10 10 10 6 0 10 -4 10 -10z m-813 -32
c-3 -7 -5 -2 -5 12 0 14 2 19 5 13 2 -7 2 -19 0 -25z m643 -8 c0 -10 -38 -1
-45 10 -2 4 7 5 20 2 14 -2 25 -8 25 -12z m-2463 -62 c-2 -13 -4 -5 -4 17 -1
22 1 32 4 23 2 -10 2 -28 0 -40z m1573 26 c0 -8 -4 -12 -10 -9 -5 3 -10 13
-10 21 0 8 5 12 10 9 6 -3 10 -13 10 -21z m-380 -26 c0 -10 -4 -18 -10 -18 -5
0 -10 15 -10 33 0 24 3 28 10 17 5 -8 10 -23 10 -32z m-830 13 c-5 -11 -10
-35 -11 -53 0 -26 -2 -29 -8 -13 -9 21 7 85 21 85 5 0 4 -9 -2 -19z m790 -7
c0 -2 -7 -4 -15 -4 -8 0 -15 4 -15 10 0 5 7 7 15 4 8 -4 15 -8 15 -10z m-13
-46 c-3 -8 -6 -5 -6 6 -1 11 2 17 5 13 3 -3 4 -12 1 -19z m1275 -10 c-9 -9
-12 -7 -12 12 0 19 3 21 12 12 9 -9 9 -15 0 -24z m-1931 -1 c-10 -9 -11 -8 -5
6 3 10 9 15 12 12 3 -3 0 -11 -7 -18z m1030 -4 c-12 -20 -14 -14 -5 12 4 9 9
14 11 11 3 -2 0 -13 -6 -23z m309 -23 c8 -9 16 -24 16 -33 3 -33 -14 -16 -34
36 -12 28 -16 43 -9 33 7 -11 19 -27 27 -36z m-214 4 c17 -14 31 -104 16 -104
-9 0 -21 29 -29 70 -10 56 -12 73 -7 60 4 -8 13 -20 20 -26z m-582 2 c-2 -14
0 -28 6 -31 5 -3 10 -12 10 -18 0 -7 -7 -3 -15 7 -17 22 -20 66 -6 66 5 0 8
-11 5 -24z m141 -16 c-3 -5 1 -25 9 -44 10 -24 12 -44 6 -63 -4 -15 -9 -23
-10 -18 -6 36 -11 56 -22 81 l-12 29 -4 -25 c-7 -45 -21 -44 -15 1 7 68 10 72
33 59 11 -6 18 -15 15 -20z m1292 -2 c-3 -7 -5 -2 -5 12 0 14 2 19 5 13 2 -7
2 -19 0 -25z m-2035 -8 c-5 -37 -22 -50 -22 -18 0 19 16 48 25 48 1 0 0 -14
-3 -30z m2078 -34 c-11 -26 -20 -54 -20 -62 0 -8 -7 -14 -15 -14 -8 0 -15 5
-15 11 0 5 5 7 12 3 8 -5 9 -2 5 9 -4 10 -2 17 4 17 7 0 9 13 5 38 -5 27 -4
33 4 22 9 -13 11 -13 20 0 5 8 10 22 11 30 0 8 3 10 5 4 3 -6 -5 -32 -16 -58z
m-2163 22 c-3 -7 -5 -2 -5 12 0 14 2 19 5 13 2 -7 2 -19 0 -25z m2023 11 c0
-6 -4 -7 -10 -4 -5 3 -10 11 -10 16 0 6 5 7 10 4 6 -3 10 -11 10 -16z m-2580
-11 c9 -3 10 -7 3 -11 -6 -4 -19 3 -29 16 -11 12 -12 17 -4 11 8 -6 22 -13 30
-16z m1727 -25 c-3 -10 -5 -2 -5 17 0 19 2 27 5 18 2 -10 2 -26 0 -35z m410
15 c-3 -8 -6 -5 -6 6 -1 11 2 17 5 13 3 -3 4 -12 1 -19z m453 -33 c0 -5 -5 -3
-10 5 -5 8 -10 20 -10 25 0 6 5 3 10 -5 5 -8 10 -19 10 -25z m-2561 -19 c-3
-3 -11 5 -18 17 -13 21 -12 21 5 5 10 -10 16 -20 13 -22z m2145 26 c3 7 4 1 1
-14 -3 -16 0 -28 8 -31 6 -2 9 -8 4 -13 -4 -4 -15 3 -24 15 -12 18 -17 20 -25
10 -7 -11 -8 -9 -4 4 3 10 6 23 6 29 0 7 5 6 14 -1 11 -9 15 -9 20 1z m896
-12 c6 -11 8 -20 6 -20 -3 0 -10 9 -16 20 -6 11 -8 20 -6 20 3 0 10 -9 16 -20z
m-1419 -57 c-8 -14 -10 -11 -6 17 5 46 7 49 12 23 2 -12 0 -30 -6 -40z m410
25 c11 -21 11 -22 -4 -9 -10 7 -17 17 -17 22 0 15 9 10 21 -13z m544 12 c-3
-5 -12 -10 -18 -10 -7 0 -6 4 3 10 19 12 23 12 15 0z m-1965 -42 c0 -25 -3
-29 -10 -18 -13 20 -13 50 0 50 6 0 10 -15 10 -32z m576 -5 c-11 -11 -17 4 -9
23 7 18 8 18 11 1 2 -10 1 -21 -2 -24z m-645 -10 c-12 -20 -14 -14 -5 12 4 9
9 14 11 11 3 -2 0 -13 -6 -23z m-501 -8 c14 -19 14 -19 -2 -6 -10 7 -18 18
-18 24 0 6 1 8 3 6 1 -2 9 -13 17 -24z m2870 10 c16 -19 1 -19 -24 0 -16 12
-17 15 -4 15 8 0 21 -7 28 -15z m-1160 -16 c0 -6 -4 -7 -10 -4 -5 3 -10 11
-10 16 0 6 5 7 10 4 6 -3 10 -11 10 -16z m-590 -31 c0 -4 -6 -8 -12 -8 -7 0
-14 12 -15 27 -1 26 0 27 13 8 8 -10 14 -22 14 -27z m244 16 c3 -8 2 -12 -4
-9 -6 3 -10 10 -10 16 0 14 7 11 14 -7z m1556 6 c0 -5 -7 -7 -15 -4 -8 4 -15
8 -15 10 0 2 7 4 15 4 8 0 15 -4 15 -10z m-1736 -16 c3 -8 2 -12 -4 -9 -6 3
-10 10 -10 16 0 14 7 11 14 -7z"/>
<path d="M2353 3884 c-4 -10 -15 -26 -24 -34 -12 -10 -15 -21 -10 -34 6 -16
11 -12 30 28 13 26 21 50 17 53 -3 3 -9 -3 -13 -13z"/>
<path d="M2280 3745 c-7 -9 -8 -15 -2 -15 5 0 12 7 16 15 3 8 4 15 2 15 -2 0
-9 -7 -16 -15z"/>
<path d="M2204 3618 c-46 -34 -49 -38 -32 -38 16 0 73 48 66 56 -3 2 -18 -6
-34 -18z"/>
<path d="M2410 3306 c0 -9 5 -16 10 -16 6 0 10 4 10 9 0 6 -4 13 -10 16 -5 3
-10 -1 -10 -9z"/>
<path d="M2240 3285 c0 -15 18 -40 24 -34 3 3 -1 14 -9 25 -8 10 -14 15 -15 9z"/>
<path d="M2275 3280 c3 -5 11 -10 16 -10 6 0 7 5 4 10 -3 6 -11 10 -16 10 -6
0 -7 -4 -4 -10z"/>
<path d="M2300 3236 c0 -9 5 -16 10 -16 6 0 10 4 10 9 0 6 -4 13 -10 16 -5 3
-10 -1 -10 -9z"/>
<path d="M2337 3144 c-13 -13 -7 -24 14 -24 11 0 19 5 17 12 -5 14 -22 21 -31
12z"/>
<path d="M2180 3130 c0 -5 5 -10 11 -10 5 0 7 5 4 10 -3 6 -8 10 -11 10 -2 0
-4 -4 -4 -10z"/>
<path d="M2355 3090 c3 -5 8 -10 11 -10 2 0 4 5 4 10 0 6 -5 10 -11 10 -5 0
-7 -4 -4 -10z"/>
<path d="M2297 2907 c-11 -29 -9 -43 4 -30 6 6 9 19 7 29 -3 18 -4 18 -11 1z"/>
<path d="M2300 2844 c0 -8 5 -12 10 -9 6 3 10 10 10 16 0 5 -4 9 -10 9 -5 0
-10 -7 -10 -16z"/>
<path d="M2197 2763 c-10 -9 -9 -23 2 -23 5 0 11 7 15 15 5 15 -5 20 -17 8z"/>
<path d="M2322 2681 c-7 -4 -24 -6 -38 -3 -14 2 -24 0 -24 -7 0 -11 6 -13 53
-15 20 -1 27 3 27 16 0 20 0 21 -18 9z"/>
<path d="M2357 2683 c-14 -13 -6 -20 23 -20 17 0 30 4 30 9 0 5 -4 7 -9 3 -5
-3 -12 -1 -16 5 -7 12 -19 13 -28 3z"/>
<path d="M2205 2660 c-3 -6 1 -7 9 -4 18 7 21 14 7 14 -6 0 -13 -4 -16 -10z"/>
<path d="M2405 2641 c-3 -5 -1 -12 5 -16 5 -3 10 1 10 9 0 18 -6 21 -15 7z"/>
<path d="M2459 2473 c0 -5 -2 -18 -3 -30 -3 -25 8 -30 20 -11 4 6 2 14 -4 16
-6 2 -8 10 -5 18 3 8 2 14 -1 14 -3 0 -6 -3 -7 -7z"/>
<path d="M3402 3439 c4 -11 58 -33 58 -23 0 2 -14 11 -31 20 -23 11 -30 12
-27 3z"/>
<path d="M3394 3382 c22 -26 36 -28 36 -7 0 8 -4 15 -9 15 -5 0 -18 3 -28 7
-17 6 -17 5 1 -15z"/>
<path d="M3280 3256 c1 -17 90 -78 106 -72 25 10 15 24 -23 33 -28 6 -38 14
-38 28 0 14 -7 20 -23 21 -12 1 -22 -4 -22 -10z"/>
<path d="M3300 3206 c0 -2 7 -9 15 -16 9 -7 15 -8 15 -2 0 5 -7 12 -15 16 -8
3 -15 4 -15 2z"/>
<path d="M290 3309 c0 -5 5 -7 10 -4 6 3 10 8 10 11 0 2 -4 4 -10 4 -5 0 -10
-5 -10 -11z"/>
<path d="M774 3248 c-6 -9 2 -11 35 -8 13 1 28 -4 32 -12 7 -10 9 -9 9 3 0 12
-11 18 -36 21 -19 2 -37 0 -40 -4z"/>
<path d="M1955 3030 c3 -5 8 -10 11 -10 2 0 4 5 4 10 0 6 -5 10 -11 10 -5 0
-7 -4 -4 -10z"/>
<path d="M1890 2994 c-13 -34 -10 -37 23 -21 32 15 33 18 7 35 -18 11 -21 9
-30 -14z"/>
<path d="M1860 2989 c0 -5 5 -7 10 -4 6 3 10 8 10 11 0 2 -4 4 -10 4 -5 0 -10
-5 -10 -11z"/>
<path d="M1920 2940 c0 -5 4 -10 9 -10 6 0 13 5 16 10 3 6 -1 10 -9 10 -9 0
-16 -4 -16 -10z"/>
<path d="M1883 2844 c-40 -31 -41 -40 -8 -46 21 -4 23 -3 13 9 -11 14 -3 26
26 36 5 2 7 8 5 15 -3 7 -16 2 -36 -14z"/>
<path d="M1925 2820 c-9 -15 -1 -23 21 -18 15 3 16 4 1 16 -11 9 -17 10 -22 2z"/>
<path d="M1915 2710 c3 -5 10 -10 16 -10 5 0 9 5 9 10 0 6 -7 10 -16 10 -8 0
-12 -4 -9 -10z"/>
<path d="M3130 2730 c0 -5 5 -10 11 -10 5 0 7 5 4 10 -3 6 -8 10 -11 10 -2 0
-4 -4 -4 -10z"/>
<path d="M1290 2520 c-8 -5 -12 -11 -9 -14 3 -3 14 1 25 9 21 16 8 20 -16 5z"/>
<path d="M1210 2490 c-12 -8 -10 -10 8 -10 13 0 20 4 17 10 -7 12 -6 12 -25 0z"/>
<path d="M1433 2281 c-15 -24 4 -45 27 -31 13 9 13 10 0 10 -12 1 -12 3 2 14
10 7 15 16 11 19 -12 12 -28 7 -40 -12z"/>
<path d="M1495 2260 c3 -5 8 -10 11 -10 2 0 4 5 4 10 0 6 -5 10 -11 10 -5 0
-7 -4 -4 -10z"/>
<path d="M1353 2245 c0 -9 7 -15 16 -13 19 4 18 22 -2 26 -7 2 -14 -4 -14 -13z"/>
<path d="M1404 2235 c-17 -13 -17 -14 -2 -15 9 0 20 5 23 11 11 17 0 20 -21 4z"/>
<path d="M1514 2231 c-11 -10 -37 -24 -57 -30 -46 -15 -50 -40 -6 -35 35 4 51
12 45 22 -2 4 14 8 36 8 22 1 45 7 51 14 9 10 8 12 -5 7 -16 -6 -23 3 -19 26
2 14 -25 7 -45 -12z"/>
<path d="M1579 2155 c-31 -17 -46 -45 -23 -45 8 0 30 7 49 14 25 11 33 19 29
30 -7 19 -21 20 -55 1z"/>
<path d="M1896 1933 c-6 -14 -5 -15 5 -6 7 7 10 15 7 18 -3 3 -9 -2 -12 -12z"/>
<path d="M1786 1783 c-12 -16 -14 -24 -6 -21 16 5 46 48 34 48 -5 0 -18 -12
-28 -27z"/>
<path d="M1737 1743 c-4 -3 -7 -11 -7 -17 0 -6 5 -5 12 2 6 6 9 14 7 17 -3 3
-9 2 -12 -2z"/>
<path d="M2080 1558 c-12 -22 -12 -22 6 -6 10 10 15 20 12 24 -4 3 -12 -5 -18
-18z"/>
<path d="M2335 1459 c-4 -6 -5 -12 -2 -15 2 -3 7 2 10 11 7 17 1 20 -8 4z"/>
<path d="M3647 2089 c7 -7 15 -10 18 -7 3 3 -2 9 -12 12 -14 6 -15 5 -6 -5z"/>
<path d="M3207 383 c10 -16 23 -34 30 -41 7 -7 13 -17 13 -22 0 -4 7 -10 15
-13 11 -5 14 2 13 29 -1 30 -7 38 -39 55 -50 25 -53 24 -32 -8z"/>
<path d="M3180 385 c0 -13 32 -66 36 -62 6 6 -23 67 -31 67 -3 0 -5 -2 -5 -5z"/>
<path d="M2261 5104 c0 -11 3 -14 6 -6 3 7 2 16 -1 19 -3 4 -6 -2 -5 -13z"/>
<path d="M2272 5030 c0 -14 2 -19 5 -12 2 6 2 18 0 25 -3 6 -5 1 -5 -13z"/>
<path d="M2732 4970 c0 -19 2 -27 5 -17 2 9 2 25 0 35 -3 9 -5 1 -5 -18z"/>
</g>
</svg>
